<svg width="48" height="48" viewBox="0 0 48 48" fill="none" xmlns="http://www.w3.org/2000/svg">
<path fill-rule="evenodd" clip-rule="evenodd" d="M23.545 6.31019C23.843 6.22994 24.157 6.22994 24.455 6.31019L40.455 10.6184C41.2815 10.841 41.8258 11.6288 41.7415 12.4806L39.4952 35.175C39.4289 35.845 38.9841 36.4175 38.3514 36.6474L35.0804 37.836L24.5976 41.6448C24.2115 41.7851 23.7884 41.7851 23.4024 41.6448L12.9196 37.8359L9.64862 36.6474C9.01584 36.4175 8.57107 35.845 8.50476 35.175L6.25851 12.4806C6.1742 11.6288 6.71845 10.841 7.54499 10.6185L23.545 6.31019ZM24 9.81233L9.88763 13.6123L11.8792 33.734L12.5884 33.9917L15.9997 26.4163L22.4043 12.1934C22.687 11.5656 23.3115 11.1619 24 11.1619C24.6885 11.1619 25.313 11.5656 25.5957 12.1934L32.0003 26.4163L35.4116 33.9917L36.1208 33.7341L38.1124 13.6123L24 9.81233ZM32.1128 35.1903L29.2734 28.8848H18.7266L15.8872 35.1903L24 38.1381L32.1128 35.1903ZM20.3026 25.3848H27.6973L24 17.174L20.3026 25.3848Z" fill="black"/>
</svg>
