<svg width="48" height="48" viewBox="0 0 48 48" fill="none" xmlns="http://www.w3.org/2000/svg">
<path fill-rule="evenodd" clip-rule="evenodd" d="M14.25 8C14.25 7.0335 15.0335 6.25 16 6.25H40C40.9665 6.25 41.75 7.0335 41.75 8V15.4278V36C41.75 39.1756 39.1756 41.75 36 41.75C32.8244 41.75 30.25 39.1756 30.25 36C30.25 32.8244 32.8244 30.25 36 30.25C36.7985 30.25 37.5589 30.4128 38.25 30.7069V17.1778H17.75V36C17.75 39.1756 15.1756 41.75 12 41.75C8.82436 41.75 6.25 39.1756 6.25 36C6.25 32.8244 8.82436 30.25 12 30.25C12.7985 30.25 13.5589 30.4128 14.25 30.7069V15.4278V8ZM14.25 36C14.25 34.7574 13.2426 33.75 12 33.75C10.7574 33.75 9.75 34.7574 9.75 36C9.75 37.2426 10.7574 38.25 12 38.25C13.2426 38.25 14.25 37.2426 14.25 36ZM17.75 13.6778H38.25V9.75H17.75V13.6778ZM38.25 36C38.25 34.7574 37.2426 33.75 36 33.75C34.7574 33.75 33.75 34.7574 33.75 36C33.75 37.2426 34.7574 38.25 36 38.25C37.2426 38.25 38.25 37.2426 38.25 36Z" fill="black"/>
</svg>
