<svg width="48" height="48" viewBox="0 0 48 48" fill="none" xmlns="http://www.w3.org/2000/svg">
<path fill-rule="evenodd" clip-rule="evenodd" d="M30.7626 12.7626C31.446 12.0791 32.554 12.0791 33.2374 12.7626L43.2374 22.7626C43.9209 23.446 43.9209 24.554 43.2374 25.2374L33.2374 35.2374C32.554 35.9209 31.446 35.9209 30.7626 35.2374C30.0791 34.554 30.0791 33.446 30.7626 32.7626L39.5251 24L30.7626 15.2374C30.0791 14.554 30.0791 13.446 30.7626 12.7626ZM17.2374 12.7626C17.9209 13.446 17.9209 14.554 17.2374 15.2374L8.47487 24L17.2374 32.7626C17.9209 33.446 17.9209 34.554 17.2374 35.2374C16.554 35.9209 15.446 35.9209 14.7626 35.2374L4.76256 25.2374C4.07915 24.554 4.07915 23.446 4.76256 22.7626L14.7626 12.7626C15.446 12.0791 16.554 12.0791 17.2374 12.7626Z" fill="black"/>
</svg>
