<svg width="48" height="48" viewBox="0 0 48 48" fill="none" xmlns="http://www.w3.org/2000/svg">
<path fill-rule="evenodd" clip-rule="evenodd" d="M30.67 8.08112C30.6702 7.11462 31.4539 6.3313 32.4204 6.33151L33.9175 6.33185C33.9177 6.33185 33.9178 6.33185 33.9179 6.33185C35.0473 6.33201 35.7853 7.02437 36.1727 7.70031C36.5182 8.30307 36.6755 9.01577 36.7646 9.62737C36.9424 10.848 36.9423 12.4346 36.9422 13.9156L36.9422 14.0159C36.9422 15.6017 36.9445 17.1295 37.0903 18.4067C37.1626 19.0402 37.264 19.5472 37.3906 19.9283C37.5216 20.3221 37.6409 20.4632 37.6706 20.4913C38.1848 20.9785 38.878 21.5044 39.4779 21.9278C39.7709 22.1346 40.0284 22.3078 40.2117 22.4286C40.3032 22.4889 40.3757 22.5358 40.4243 22.567L40.4785 22.6016L40.4909 22.6095L40.4928 22.6107C40.9754 22.9139 41.2801 23.4329 41.3096 24.002C41.3391 24.571 41.0898 25.1187 40.6413 25.4701C40.6413 25.4701 40.6413 25.4702 40.6413 25.4702C40.6412 25.4702 40.6412 25.4703 40.6411 25.4703L40.6385 25.4724L40.6252 25.4828L40.5689 25.5275C40.5187 25.5676 40.4443 25.6273 40.3507 25.7037C40.1631 25.8566 39.9004 26.0745 39.6027 26.3318C38.9949 26.8572 38.2901 27.5052 37.7755 28.0847C37.5202 28.3721 37.243 29.0665 37.0896 30.3691C36.9445 31.6006 36.9422 33.0272 36.9422 34.4971L36.9422 34.6056C36.9424 35.9654 36.9425 37.4352 36.7608 38.5686C36.669 39.1413 36.5035 39.8301 36.132 40.4155C35.7028 41.0919 34.9568 41.6685 33.9175 41.6685H33.9171L32.4196 41.6681C31.4531 41.6679 30.6698 40.8843 30.67 39.9178C30.6702 38.9513 31.4539 38.1679 32.4204 38.1681L33.2777 38.1683C33.2868 38.1222 33.2959 38.0711 33.305 38.0146C33.4371 37.1901 33.4422 35.9976 33.4422 34.4971V34.4425C33.4422 33.0349 33.4422 31.4152 33.6136 29.9597C33.7789 28.5565 34.139 26.9087 35.1584 25.7607C35.6286 25.2313 36.1844 24.6951 36.6968 24.2301C36.2186 23.8677 35.7089 23.4541 35.2633 23.032C34.6556 22.4563 34.297 21.717 34.0694 21.0324C33.8375 20.3351 33.6999 19.5658 33.6129 18.8037C33.4422 17.3085 33.4422 15.592 33.4422 14.0738V14.0159C33.4422 12.4073 33.438 11.0713 33.3012 10.1319C33.2847 10.0188 33.2673 9.91902 33.2494 9.8317L32.4196 9.83151C31.4531 9.8313 30.6698 9.04762 30.67 8.08112ZM11.9645 7.58448C12.3937 6.90809 13.1397 6.33151 14.179 6.33151H14.1794L15.6769 6.33185C16.6434 6.33207 17.4267 7.11574 17.4265 8.08224C17.4263 9.04874 16.6426 9.83207 15.6761 9.83185L14.8188 9.83166C14.8097 9.87781 14.8006 9.92893 14.7915 9.98537C14.6594 10.8099 14.6543 12.0024 14.6543 13.5029L14.6543 13.5575C14.6543 14.9651 14.6543 16.5848 14.4829 18.0403C14.3177 19.4435 13.9575 21.0913 12.9381 22.2393C12.4719 22.7643 11.9062 23.322 11.3807 23.8151C11.8689 24.1505 12.3845 24.5428 12.8332 24.968C13.4409 25.5437 13.7995 26.283 14.0271 26.9676C14.259 27.6649 14.3966 28.4342 14.4836 29.1963C14.6543 30.6915 14.6543 32.408 14.6543 33.9261L14.6543 33.984C14.6543 35.5927 14.6585 36.9287 14.7953 37.8681C14.8118 37.9812 14.8293 38.081 14.8471 38.1683L15.6769 38.1685C16.6434 38.1687 17.4267 38.9524 17.4265 39.9189C17.4263 40.8854 16.6426 41.6687 15.6761 41.6685L14.179 41.6682C13.0494 41.6682 12.3113 40.9757 11.9238 40.2997C11.5783 39.6969 11.421 38.9842 11.3319 38.3726C11.1541 37.1521 11.1542 35.5654 11.1543 34.0845L11.1543 33.984C11.1543 32.3983 11.152 30.8705 11.0062 29.5933C10.9339 28.9598 10.8325 28.4527 10.7059 28.0717C10.5749 27.6779 10.4556 27.5368 10.4259 27.5087L11.6004 26.2691L10.4259 27.5087C9.95507 27.0626 9.28173 26.602 8.67053 26.2305C8.37544 26.0511 8.11456 25.9043 7.92888 25.8031C7.83634 25.7526 7.7633 25.714 7.71499 25.6887L7.66197 25.6613L7.65075 25.6555L7.65042 25.6554C7.12466 25.3904 6.76739 24.8788 6.69966 24.2939C6.63193 23.7091 6.86278 23.1295 7.31398 22.7514C7.31401 22.7513 7.31404 22.7513 7.31406 22.7513C7.31407 22.7513 7.31408 22.7513 7.31409 22.7513L7.31449 22.7509L7.31775 22.7482L7.33257 22.7357L7.39358 22.684C7.44752 22.6382 7.52695 22.5704 7.62638 22.4845C7.82554 22.3125 8.10346 22.0693 8.41673 21.7863C9.05518 21.2095 9.79505 20.5076 10.321 19.9153C10.5763 19.6279 10.8535 18.9335 11.0069 17.6309C11.152 16.3994 11.1543 14.9728 11.1543 13.5029C11.1543 13.4668 11.1543 13.4306 11.1543 13.3943C11.1541 12.0346 11.154 10.5648 11.3357 9.43143C11.4275 8.85873 11.593 8.16985 11.9645 7.58448Z" fill="black"/>
</svg>
