<svg width="48" height="48" viewBox="0 0 48 48" fill="none" xmlns="http://www.w3.org/2000/svg">
<path fill-rule="evenodd" clip-rule="evenodd" d="M18.2939 9.21677C18.6185 8.72993 19.1649 8.4375 19.75 8.4375H28.25C28.8351 8.4375 29.3815 8.72993 29.7061 9.21677L33.4366 14.8125H41C41.9665 14.8125 42.75 15.596 42.75 16.5625V37.8125C42.75 38.779 41.9665 39.5625 41 39.5625H7C6.0335 39.5625 5.25 38.779 5.25 37.8125V16.5625C5.25 15.596 6.0335 14.8125 7 14.8125H14.5634L18.2939 9.21677ZM20.6866 11.9375L16.9561 17.5332C16.6315 18.0201 16.0851 18.3125 15.5 18.3125H8.75V36.0625H39.25V18.3125H32.5C31.9149 18.3125 31.3685 18.0201 31.0439 17.5332L27.3134 11.9375H20.6866ZM24 21.5C21.4457 21.5 19.375 23.5707 19.375 26.125C19.375 28.6793 21.4457 30.75 24 30.75C26.5543 30.75 28.625 28.6793 28.625 26.125C28.625 23.5707 26.5543 21.5 24 21.5ZM15.875 26.125C15.875 21.6377 19.5127 18 24 18C28.4873 18 32.125 21.6377 32.125 26.125C32.125 30.6123 28.4873 34.25 24 34.25C19.5127 34.25 15.875 30.6123 15.875 26.125Z" fill="black"/>
</svg>
