<svg width="48" height="48" viewBox="0 0 48 48" fill="none" xmlns="http://www.w3.org/2000/svg">
<path fill-rule="evenodd" clip-rule="evenodd" d="M24 8.75C17.9249 8.75 13 13.6749 13 19.75C13 23.1473 14.538 26.1837 16.9621 28.2043C18.8701 29.7947 21.3212 30.75 24 30.75C26.6788 30.75 29.1299 29.7947 31.0379 28.2043C33.462 26.1837 35 23.1473 35 19.75C35 13.6749 30.0751 8.75 24 8.75ZM9.5 19.75C9.5 11.7419 15.9919 5.25 24 5.25C32.0081 5.25 38.5 11.7419 38.5 19.75C38.5 23.9271 36.7319 27.6927 33.9084 30.3365V41C33.9084 41.5511 33.6488 42.07 33.2078 42.4004C32.7669 42.7309 32.196 42.8343 31.6671 42.6796L24 40.4368L16.3329 42.6796C15.804 42.8343 15.2331 42.7309 14.7922 42.4004C14.3512 42.07 14.0916 41.5511 14.0916 41V30.3365C11.2681 27.6927 9.5 23.9271 9.5 19.75ZM17.5916 32.7601V38.6647L23.5087 36.9338C23.8295 36.84 24.1705 36.84 24.4913 36.9338L30.4084 38.6647V32.7601C28.4756 33.7138 26.2994 34.25 24 34.25C21.7006 34.25 19.5244 33.7138 17.5916 32.7601Z" fill="black"/>
</svg>
