<svg width="48" height="48" viewBox="0 0 48 48" fill="none" xmlns="http://www.w3.org/2000/svg">
<path fill-rule="evenodd" clip-rule="evenodd" d="M24 21.75C22.7574 21.75 21.75 22.7574 21.75 24C21.75 25.2426 22.7574 26.25 24 26.25C25.2426 26.25 26.25 25.2426 26.25 24C26.25 22.7574 25.2426 21.75 24 21.75ZM18.5212 22.25C19.2615 19.9301 21.4346 18.25 24 18.25C26.5654 18.25 28.7385 19.9301 29.4788 22.25H40C40.9665 22.25 41.75 23.0335 41.75 24C41.75 24.9665 40.9665 25.75 40 25.75H29.4788C28.7385 28.0699 26.5654 29.75 24 29.75C21.4346 29.75 19.2615 28.0699 18.5212 25.75H8C7.0335 25.75 6.25 24.9665 6.25 24C6.25 23.0335 7.0335 22.25 8 22.25H18.5212Z" fill="black"/>
</svg>
