<svg width="48" height="48" viewBox="0 0 48 48" fill="none" xmlns="http://www.w3.org/2000/svg">
<path fill-rule="evenodd" clip-rule="evenodd" d="M24 9.75C16.1299 9.75 9.75 16.1299 9.75 24C9.75 31.8701 16.1299 38.25 24 38.25C31.8701 38.25 38.25 31.8701 38.25 24C38.25 16.1299 31.8701 9.75 24 9.75ZM6.25 24C6.25 14.1969 14.1969 6.25 24 6.25C33.8031 6.25 41.75 14.1969 41.75 24C41.75 33.8031 33.8031 41.75 24 41.75C14.1969 41.75 6.25 33.8031 6.25 24ZM24.1941 18.3532C21.0754 18.3532 18.5472 20.8813 18.5472 24C18.5472 27.1187 21.0754 29.6468 24.1941 29.6468C25.7973 29.6468 27.242 28.981 28.2721 27.906C28.9407 27.2081 30.0485 27.1844 30.7464 27.8531C31.4442 28.5217 31.4679 29.6295 30.7993 30.3274C29.1365 32.0628 26.7904 33.1468 24.1941 33.1468C19.1424 33.1468 15.0472 29.0516 15.0472 24C15.0472 18.9484 19.1424 14.8532 24.1941 14.8532C26.7904 14.8532 29.1365 15.9372 30.7993 17.6726C31.4679 18.3705 31.4442 19.4783 30.7464 20.1469C30.0485 20.8156 28.9407 20.7919 28.2721 20.094C27.242 19.019 25.7973 18.3532 24.1941 18.3532Z" fill="black"/>
</svg>
