<svg width="48" height="48" viewBox="0 0 48 48" fill="none" xmlns="http://www.w3.org/2000/svg">
<path fill-rule="evenodd" clip-rule="evenodd" d="M10.4064 12.8673C9.81859 13.379 9.75 13.7181 9.75 13.8612C9.75 14.0145 9.82901 14.3768 10.43 14.9193C11.0263 15.4576 11.9864 16.0259 13.3179 16.5412C15.9686 17.567 19.7459 18.25 24 18.25C28.264 18.25 32.0463 17.5989 34.6992 16.6041C36.0322 16.1042 36.9893 15.5513 37.5817 15.026C38.1761 14.499 38.25 14.1482 38.25 14C38.25 13.8518 38.1761 13.501 37.5817 12.974C36.9893 12.4487 36.0322 11.8958 34.6992 11.3959C32.0463 10.4011 28.264 9.75 24 9.75C19.7261 9.75 15.9387 10.369 13.2834 11.3329C11.949 11.8173 10.9949 12.355 10.4064 12.8673ZM38.25 18.8097C37.5447 19.2124 36.7616 19.5687 35.9282 19.8812C32.7902 21.058 28.5726 21.75 24 21.75C19.4176 21.75 15.1948 21.0205 12.0547 19.8053C11.2269 19.4849 10.4498 19.1214 9.75 18.7133V23.9306C9.75 24.0814 9.82644 24.4379 10.4242 24.9727C11.0186 25.5044 11.9772 26.065 13.3093 26.5726C15.9611 27.5829 19.741 28.25 24 28.25C28.264 28.25 32.0463 27.5989 34.6992 26.6041C36.0322 26.1042 36.9893 25.5513 37.5817 25.026C38.1761 24.499 38.25 24.1482 38.25 24V18.8097ZM38.25 28.8097C37.5447 29.2124 36.7616 29.5687 35.9282 29.8812C32.7902 31.058 28.5726 31.75 24 31.75C19.4225 31.75 15.2023 31.0392 12.0632 29.8433C11.2327 29.5268 10.4525 29.1669 9.75 28.7615V34C9.75 34.1482 9.82385 34.499 10.4183 35.026C11.0107 35.5513 11.9678 36.1042 13.3008 36.6041C15.9537 37.5989 19.736 38.25 24 38.25C28.264 38.25 32.0463 37.5989 34.6992 36.6041C36.0322 36.1042 36.9893 35.5513 37.5817 35.026C38.1761 34.499 38.25 34.1482 38.25 34V28.8097ZM41.75 24V34C41.75 35.5086 40.9284 36.7363 39.9036 37.6449C38.8767 38.5553 37.4907 39.2953 35.9282 39.8812C32.7902 41.058 28.5726 41.75 24 41.75C19.4274 41.75 15.2098 41.058 12.0718 39.8812C10.5093 39.2953 9.12326 38.5553 8.0964 37.6449C7.07158 36.7363 6.25 35.5086 6.25 34V23.9306V13.8612C6.25 12.3473 7.07684 11.1254 8.10833 10.2274C9.13915 9.33009 10.5282 8.60962 12.0891 8.04297C15.2247 6.90471 19.4373 6.25 24 6.25C28.5726 6.25 32.7902 6.94205 35.9282 8.11878C37.4907 8.70473 38.8767 9.44466 39.9036 10.3551C40.9284 11.2637 41.75 12.4914 41.75 14V24Z" fill="black"/>
</svg>
