<svg width="48" height="48" viewBox="0 0 48 48" fill="none" xmlns="http://www.w3.org/2000/svg">
<path fill-rule="evenodd" clip-rule="evenodd" d="M40.2151 6.36467C40.2154 6.3647 40.2156 6.36472 40 8.1014L40.2156 6.36472C41.092 6.4735 41.75 7.21825 41.75 8.1014V38.1014C41.75 38.6031 41.5347 39.0806 41.1587 39.4128C40.7828 39.745 40.2825 39.8998 39.7847 39.8381L39.7847 39.8381L39.7844 39.8381L39.7827 39.8379L39.7721 39.8366L39.7255 39.831C39.6832 39.8261 39.6192 39.8187 39.5354 39.8094C39.3678 39.7909 39.1214 39.765 38.8127 39.7361C38.1945 39.6781 37.331 39.6085 36.3532 39.5622C34.3564 39.4677 32.0361 39.4788 30.3432 39.8174C29.295 40.0271 27.9168 40.5117 26.736 40.9793C26.1597 41.2074 25.6555 41.4213 25.2958 41.578C25.1163 41.6562 24.9735 41.7198 24.8768 41.7634C24.8284 41.7851 24.7916 41.8019 24.7674 41.8129L24.7408 41.8251L24.735 41.8278L24.7342 41.8281C24.2684 42.0434 23.7316 42.0434 23.2658 41.8281L23.265 41.8278L23.2592 41.8251L23.2326 41.8129C23.2084 41.8019 23.1716 41.7851 23.1232 41.7634C23.0265 41.7198 22.8837 41.6562 22.7042 41.578C22.3445 41.4213 21.8403 41.2074 21.264 40.9793C20.0832 40.5117 18.705 40.0271 17.6568 39.8174C15.9639 39.4788 13.6436 39.4677 11.6468 39.5622C10.669 39.6085 9.80554 39.6781 9.18731 39.7361C8.87864 39.765 8.63224 39.7909 8.46459 39.8094C8.38079 39.8187 8.31675 39.8261 8.27454 39.831L8.22787 39.8366L8.21732 39.8379L8.21555 39.8381C7.71768 39.8999 7.21724 39.745 6.84128 39.4128C6.46531 39.0807 6.25 38.6031 6.25 38.1014V8.1014C6.25 7.21825 6.90803 6.4735 7.78445 6.36472L8 8.1014C7.78445 6.36472 7.78464 6.3647 7.78485 6.36467L7.7854 6.36461L7.78692 6.36442L7.79165 6.36384L7.80776 6.36188L7.86593 6.35495C7.91598 6.34907 7.98825 6.34074 8.08066 6.33055C8.26542 6.31016 8.53101 6.28224 8.86067 6.25134C9.5191 6.18962 10.4377 6.11558 11.4812 6.06615C13.527 5.96926 16.2067 5.95809 18.3432 6.38538C19.6935 6.65544 21.2987 7.19515 22.5112 7.64021C23.101 7.8567 23.619 8.0587 24 8.21096C24.381 8.0587 24.899 7.8567 25.4888 7.64021C26.7013 7.19515 28.3065 6.65544 29.6568 6.38538C31.7933 5.95808 34.473 5.96926 36.5188 6.06615C37.5623 6.11558 38.4809 6.18961 39.1393 6.25133C39.469 6.28223 39.7346 6.31015 39.9193 6.33055C40.0118 6.34074 40.084 6.34907 40.1341 6.35495L40.1922 6.36188L40.2083 6.36384L40.2131 6.36442L40.2146 6.36461L40.2151 6.36467ZM25.75 11.2832V37.6065C26.9222 37.1519 28.3943 36.6379 29.6568 36.3854C31.7933 35.9581 34.473 35.9693 36.5188 36.0662C37.1519 36.0961 37.7391 36.1352 38.25 36.175V9.68636C37.7111 9.64162 37.0623 9.59581 36.3532 9.56223C34.3564 9.46766 32.0361 9.47883 30.3432 9.81741C29.2715 10.0317 27.8767 10.492 26.6948 10.9259C26.3488 11.0529 26.0287 11.1747 25.75 11.2832ZM22.25 37.6065V11.2832C21.9713 11.1747 21.6512 11.0529 21.3052 10.9259C20.1233 10.492 18.7285 10.0317 17.6568 9.81742C15.9639 9.47883 13.6436 9.46766 11.6468 9.56223C10.9377 9.59582 10.2889 9.64162 9.75 9.68636V36.175C10.2609 36.1352 10.8481 36.0961 11.4812 36.0662C13.527 35.9693 16.2067 35.9581 18.3432 36.3854C19.6057 36.6379 21.0778 37.1519 22.25 37.6065Z" fill="black"/>
</svg>
