<svg width="48" height="48" viewBox="0 0 48 48" fill="none" xmlns="http://www.w3.org/2000/svg">
<path fill-rule="evenodd" clip-rule="evenodd" d="M10.0466 8C10.0466 7.0335 10.8301 6.25 11.7966 6.25L36.2034 6.25C36.6687 6.25 37.1149 6.43532 37.4433 6.76499C37.7717 7.09467 37.9552 7.54155 37.9534 8.00686L37.828 39.9824C37.8243 40.9455 37.043 41.7246 36.0798 41.7255L11.7983 41.75C11.3339 41.7505 10.8883 41.5663 10.5598 41.2381C10.2312 40.9098 10.0466 40.4644 10.0466 40L10.0466 8ZM13.5466 9.75L13.5466 38.2482L34.3349 38.2273L34.4465 9.75L13.5466 9.75ZM17.8685 16C17.8685 15.0335 18.652 14.25 19.6185 14.25H28.3815C29.348 14.25 30.1315 15.0335 30.1315 16C30.1315 16.9665 29.348 17.75 28.3815 17.75H19.6185C18.652 17.75 17.8685 16.9665 17.8685 16ZM17.8685 24C17.8685 23.0335 18.652 22.25 19.6185 22.25H28.3815C29.348 22.25 30.1315 23.0335 30.1315 24C30.1315 24.9665 29.348 25.75 28.3815 25.75H19.6185C18.652 25.75 17.8685 24.9665 17.8685 24ZM17.8685 32C17.8685 31.0335 18.652 30.25 19.6185 30.25H28.3815C29.348 30.25 30.1315 31.0335 30.1315 32C30.1315 32.9665 29.348 33.75 28.3815 33.75H19.6185C18.652 33.75 17.8685 32.9665 17.8685 32Z" fill="black"/>
</svg>
