<svg width="48" height="48" viewBox="0 0 48 48" fill="none" xmlns="http://www.w3.org/2000/svg">
<path fill-rule="evenodd" clip-rule="evenodd" d="M13.9845 8.40259C14.2971 7.86114 14.8748 7.52759 15.5 7.52759L32.5 7.52759C33.1252 7.52759 33.7029 7.86114 34.0155 8.40259L42.5155 23.125C42.8282 23.6665 42.8282 24.3336 42.5155 24.875L34.0155 39.5975C33.7029 40.1389 33.1252 40.4725 32.5 40.4725H15.5C14.8748 40.4725 14.2971 40.1389 13.9845 39.5975L5.48446 24.875C5.17185 24.3336 5.17185 23.6665 5.48446 23.125L13.9845 8.40259ZM16.5104 11.0276L9.02073 24L16.5104 36.9725H31.4896L38.9793 24L31.4896 11.0276L16.5104 11.0276ZM23.125 14.4845C23.6665 14.1719 24.3336 14.1719 24.875 14.4845L31.8032 18.4845C32.3447 18.7971 32.6782 19.3748 32.6782 20V28C32.6782 28.6252 32.3447 29.203 31.8032 29.5156L24.875 33.5156C24.3336 33.8282 23.6665 33.8282 23.125 33.5156L16.1968 29.5156C15.6554 29.203 15.3218 28.6252 15.3218 28V20C15.3218 19.3748 15.6554 18.7971 16.1968 18.4845L23.125 14.4845ZM18.8218 21.0104V26.9897L24 29.9793L29.1782 26.9897V21.0104L24 18.0207L18.8218 21.0104Z" fill="black"/>
</svg>
