<svg width="48" height="48" viewBox="0 0 48 48" fill="none" xmlns="http://www.w3.org/2000/svg">
<path fill-rule="evenodd" clip-rule="evenodd" d="M6.25 10.5C6.25 9.5335 7.0335 8.75 8 8.75H40C40.9665 8.75 41.75 9.5335 41.75 10.5C41.75 11.4665 40.9665 12.25 40 12.25H8C7.0335 12.25 6.25 11.4665 6.25 10.5ZM6.25 19.5C6.25 18.5335 7.0335 17.75 8 17.75H33.6C34.5665 17.75 35.35 18.5335 35.35 19.5C35.35 20.4665 34.5665 21.25 33.6 21.25H8C7.0335 21.25 6.25 20.4665 6.25 19.5ZM6.25 28.5C6.25 27.5335 7.0335 26.75 8 26.75H36.8C37.7665 26.75 38.55 27.5335 38.55 28.5C38.55 29.4665 37.7665 30.25 36.8 30.25H8C7.0335 30.25 6.25 29.4665 6.25 28.5ZM6.25 37.5C6.25 36.5335 7.0335 35.75 8 35.75H27.2C28.1665 35.75 28.95 36.5335 28.95 37.5C28.95 38.4665 28.1665 39.25 27.2 39.25H8C7.0335 39.25 6.25 38.4665 6.25 37.5Z" fill="black"/>
</svg>
