<svg width="48" height="48" viewBox="0 0 48 48" fill="none" xmlns="http://www.w3.org/2000/svg">
<path fill-rule="evenodd" clip-rule="evenodd" d="M27.7333 8.95467C25.4652 8.50974 22.5306 8.70812 18.5103 10.3019C17.6118 10.6581 16.5947 10.2185 16.2385 9.32004C15.8823 8.42156 16.3219 7.40446 17.2204 7.04828C21.6984 5.27305 25.3249 4.91551 28.407 5.52013C31.485 6.12393 33.8208 7.64965 35.7645 9.27284C39.0729 12.0359 40.8321 16.5676 41.4723 21.4638C42.1182 26.4034 41.6654 31.9804 40.2867 37.1767C40.0389 38.1108 39.0806 38.6672 38.1465 38.4193C37.2123 38.1715 36.6559 37.2132 36.9038 36.2791C38.1809 31.4658 38.5814 26.3499 38.0018 21.9175C37.4166 17.4417 35.8715 13.9223 33.5209 11.9592C31.8092 10.5297 30.0055 9.4004 27.7333 8.95467ZM13.305 11.6779C14.0832 12.251 14.2495 13.3465 13.6764 14.1247C11.8794 16.5647 11.5797 19.4787 11.4314 22.5216C11.4209 22.737 11.4111 22.9554 11.4011 23.1757C11.3445 24.432 11.2853 25.7479 11.085 26.9077C10.8465 28.2885 10.3639 29.7643 9.17874 30.864C8.47025 31.5214 7.36299 31.48 6.7056 30.7715C6.04822 30.063 6.08965 28.9557 6.79814 28.2983C7.15984 27.9627 7.4507 27.3854 7.63603 26.3122C7.79544 25.389 7.84389 24.3332 7.90214 23.0639C7.91271 22.8335 7.92361 22.5961 7.93555 22.3511C8.08346 19.3171 8.37626 15.4193 10.8581 12.0492C11.4313 11.271 12.5268 11.1047 13.305 11.6779ZM24.6687 16.6844C22.8911 16.6844 21.3116 17.9879 20.6079 19.0691C19.8554 20.2253 19.7539 21.4947 19.7137 23.5029C19.7117 23.6052 19.7098 23.709 19.7078 23.8143C19.6729 25.7012 19.6294 28.058 18.6693 30.7118C18.0746 32.3557 17.0921 34.2146 16.2954 35.6125C15.8906 36.3227 15.5212 36.9358 15.2525 37.372C15.118 37.5904 15.0083 37.7651 14.9316 37.8862C14.8932 37.9468 14.8631 37.9941 14.8422 38.0267L14.8178 38.0646L14.8111 38.0751L14.8091 38.0782L14.8085 38.0791L14.8082 38.0795C14.8081 38.0796 14.8081 38.0798 13.3913 37.1623L14.8081 38.0798C14.2827 38.891 13.1992 39.1228 12.3879 38.5975C11.5767 38.0722 11.3449 36.9888 11.8701 36.1775L11.8701 36.1775L11.8702 36.1774L11.871 36.1762L11.8754 36.1693L11.895 36.1387C11.9128 36.1111 11.9395 36.0691 11.9744 36.014C12.0442 35.9039 12.1462 35.7414 12.2724 35.5364C12.5252 35.126 12.8737 34.5478 13.2546 33.8794C14.0292 32.5202 14.889 30.8731 15.3781 29.5211C16.1367 27.4242 16.1726 25.5822 16.21 23.658C16.2115 23.5831 16.2129 23.5081 16.2144 23.4329C16.2531 21.4986 16.3095 19.2572 17.6745 17.1599C18.7601 15.4919 21.2934 13.1844 24.6687 13.1844C26.8377 13.1844 28.8274 13.6705 30.4864 15.0126C32.1194 16.3337 33.2184 18.3132 33.9759 20.871C34.2504 21.7977 33.7216 22.7715 32.7949 23.0459C31.8682 23.3204 30.8945 22.7917 30.62 21.8649C29.9732 19.6812 29.163 18.4439 28.285 17.7336C27.4331 17.0444 26.3104 16.6844 24.6687 16.6844ZM25.2701 21.9944C26.2366 21.9944 27.0201 22.7779 27.0201 23.7444C27.0201 28.598 26.6848 31.6681 25.7444 34.3268C24.8739 36.7878 23.5085 38.8026 21.7266 41.4321C21.6043 41.6125 21.4801 41.7958 21.354 41.9823C20.8126 42.7829 19.7246 42.993 18.924 42.4515C18.1234 41.9101 17.9133 40.8222 18.4548 40.0216C18.5424 39.8919 18.6285 39.7647 18.7131 39.6398C20.61 36.8366 21.7289 35.1833 22.4447 33.1596C23.1822 31.0747 23.5201 28.4879 23.5201 23.7444C23.5201 22.7779 24.3036 21.9944 25.2701 21.9944ZM32.298 26.4194C33.2645 26.4194 34.048 27.2029 34.048 28.1694C34.048 31.562 33.7942 34.0098 33.1113 36.1546C32.423 38.3166 31.3378 40.0446 29.8953 42.0304C29.3272 42.8124 28.2329 42.9858 27.4509 42.4178C26.6689 41.8498 26.4955 40.7554 27.0635 39.9734C28.4347 38.0859 29.2587 36.7184 29.7763 35.0928C30.2993 33.4501 30.548 31.4183 30.548 28.1694C30.548 27.2029 31.3315 26.4194 32.298 26.4194Z" fill="black"/>
</svg>
