<svg width="48" height="48" viewBox="0 0 48 48" fill="none" xmlns="http://www.w3.org/2000/svg">
<path fill-rule="evenodd" clip-rule="evenodd" d="M6.2561 10.1434C6.2561 9.17687 7.03961 8.39337 8.0061 8.39337H18.6034C19.1456 8.39337 19.6571 8.64464 19.9885 9.07372L22.1134 11.8252H38.1635C39.13 11.8252 39.9135 12.6087 39.9135 13.5752V18.4795C39.9135 19.446 39.13 20.2295 38.1635 20.2295C37.197 20.2295 36.4135 19.446 36.4135 18.4795V15.3252H21.2538C20.7116 15.3252 20.2001 15.0739 19.8687 14.6448L17.7438 11.8934H9.7561V26.2801L10.1764 24.9218C10.4032 24.1889 11.0809 23.6891 11.8482 23.6891H39.9939C40.5309 23.6891 41.0381 23.9357 41.3699 24.3579C41.7017 24.7802 41.8212 25.3314 41.6942 25.8531L38.6706 38.2707C38.4796 39.0548 37.7773 39.6067 36.9702 39.6067H8.0061C7.03961 39.6067 6.2561 38.8232 6.2561 37.8567V10.1434ZM10.3794 36.1067H35.5952L37.7666 27.1891H13.1386L10.3794 36.1067Z" fill="black"/>
</svg>
