<svg width="48" height="48" viewBox="0 0 48 48" fill="none" xmlns="http://www.w3.org/2000/svg">
<path fill-rule="evenodd" clip-rule="evenodd" d="M6.25 10.1434C6.25 9.17687 7.0335 8.39337 8 8.39337H18.5973C19.1395 8.39337 19.651 8.64464 19.9824 9.07372L22.1073 11.8252H39.9755C40.9413 11.8252 41.7246 12.6076 41.7255 13.5734L41.75 37.8549C41.7505 38.3193 41.5663 38.7649 41.2381 39.0935C40.9098 39.422 40.4644 39.6067 40 39.6067H8C7.0335 39.6067 6.25 38.8232 6.25 37.8567V10.1434ZM9.75 11.8934V36.1067H38.2482L38.2273 15.3252H21.2477C20.7055 15.3252 20.194 15.0739 19.8626 14.6448L17.7377 11.8934H9.75Z" fill="black"/>
</svg>
