<svg width="48" height="48" viewBox="0 0 48 48" fill="none" xmlns="http://www.w3.org/2000/svg">
<path fill-rule="evenodd" clip-rule="evenodd" d="M6.25002 10.5C6.25002 9.5335 7.03352 8.75 8.00002 8.75H40C40.9665 8.75 41.75 9.5335 41.75 10.5C41.75 11.4665 40.9665 12.25 40 12.25H8.00002C7.03352 12.25 6.25002 11.4665 6.25002 10.5ZM6.83738 18.192C7.55975 17.5499 8.66588 17.615 9.30799 18.3374L13.308 22.8374C13.8974 23.5004 13.8974 24.4996 13.308 25.1626L9.30799 29.6626C8.66588 30.385 7.55975 30.4501 6.83738 29.808C6.11501 29.1659 6.04995 28.0597 6.69205 27.3374L9.6586 24L6.69205 20.6626C6.04995 19.9403 6.11501 18.8341 6.83738 18.192ZM18.25 19.5C18.25 18.5335 19.0335 17.75 20 17.75H40C40.9665 17.75 41.75 18.5335 41.75 19.5C41.75 20.4665 40.9665 21.25 40 21.25H20C19.0335 21.25 18.25 20.4665 18.25 19.5ZM18.25 28.5C18.25 27.5335 19.0335 26.75 20 26.75H40C40.9665 26.75 41.75 27.5335 41.75 28.5C41.75 29.4665 40.9665 30.25 40 30.25H20C19.0335 30.25 18.25 29.4665 18.25 28.5ZM6.25002 37.5C6.25002 36.5335 7.03352 35.75 8.00002 35.75H40C40.9665 35.75 41.75 36.5335 41.75 37.5C41.75 38.4665 40.9665 39.25 40 39.25H8.00002C7.03352 39.25 6.25002 38.4665 6.25002 37.5Z" fill="black"/>
</svg>
