<svg width="48" height="48" viewBox="0 0 48 48" fill="none" xmlns="http://www.w3.org/2000/svg">
<path fill-rule="evenodd" clip-rule="evenodd" d="M32.2222 12.6925C29.6327 10.8111 26.4852 9.85628 23.2868 9.98194C20.0885 10.1076 17.0256 11.3064 14.5916 13.3852C12.3962 15.2602 10.8279 17.7527 10.0833 20.5271L28.0776 37.8283C30.8206 36.9753 33.2496 35.3104 35.037 33.043C36.6549 30.9908 37.6702 28.5426 37.9884 25.971H33.2508C32.2843 25.971 31.5008 25.1875 31.5008 24.221C31.5008 23.2545 32.2843 22.471 33.2508 22.471H39.8463C40.8128 22.471 41.5963 23.2545 41.5963 24.221C41.5963 28.2079 40.254 32.0788 37.7857 35.2099C35.3173 38.3409 31.8668 40.5498 27.9899 41.4805C27.4098 41.6198 26.7986 41.4539 26.3685 41.0404L6.94082 22.361C6.51071 21.9475 6.32094 21.3433 6.43734 20.7581C7.21517 16.8477 9.28685 13.3131 12.3186 10.7238C15.3503 8.13441 19.1655 6.64117 23.1494 6.48464C27.1333 6.32811 31.0539 7.51741 34.2795 9.8609C35.0614 10.429 35.2347 11.5234 34.6666 12.3053C34.0985 13.0872 33.0041 13.2606 32.2222 12.6925ZM7.24568 29.4467C7.93986 28.9829 8.86501 29.074 9.45536 29.6644L18.1145 38.3235C18.7048 38.9139 18.796 39.839 18.3321 40.5332C17.8683 41.2274 16.9787 41.4972 16.2074 41.1777C14.0538 40.2857 12.0971 38.9783 10.4489 37.33C8.80061 35.6818 7.49316 33.725 6.60114 31.5715C6.28164 30.8002 6.5515 29.9106 7.24568 29.4467Z" fill="black"/>
</svg>
