<svg width="48" height="48" viewBox="0 0 48 48" fill="none" xmlns="http://www.w3.org/2000/svg">
<path fill-rule="evenodd" clip-rule="evenodd" d="M12 38.25C10.7574 38.25 9.75 37.2426 9.75 36C9.75 34.7574 10.7574 33.75 12 33.75C13.2426 33.75 14.25 34.7574 14.25 36C14.25 37.2426 13.2426 38.25 12 38.25ZM6.25 36C6.25 39.1756 8.82436 41.75 12 41.75C15.1756 41.75 17.75 39.1756 17.75 36C17.75 33.4346 16.0699 31.2615 13.75 30.5212V28.179C13.7598 28.142 13.7829 28.0686 13.8335 27.9668C13.9548 27.7229 14.2745 27.2336 15.1065 26.6757C16.8164 25.5292 20.6681 24.1132 29.0552 24.1132C31.0679 24.1132 32.6948 23.6489 33.9824 22.8624C35.2661 22.0783 36.1147 21.0338 36.6681 20.0199C37.1609 19.1167 37.4255 18.2283 37.5693 17.5332C39.9822 16.8502 41.75 14.6316 41.75 12C41.75 8.82436 39.1756 6.25 36 6.25C32.8244 6.25 30.25 8.82436 30.25 12C30.25 14.4707 31.8082 16.5774 33.9955 17.391C33.9 17.6974 33.7705 18.0231 33.5957 18.3433C33.2809 18.9202 32.8274 19.4666 32.1579 19.8756C31.4923 20.2821 30.5149 20.6132 29.0552 20.6132C21.0186 20.6132 16.4137 21.8537 13.75 23.3992L13.75 17.4789C16.0699 16.7385 17.75 14.5654 17.75 12C17.75 8.82436 15.1756 6.25 12 6.25C8.82437 6.25 6.25 8.82436 6.25 12C6.25 14.5654 7.93009 16.7385 10.25 17.4788L10.25 28.0813V30.5212C7.93008 31.2615 6.25 33.4346 6.25 36ZM12 14.25C10.7574 14.25 9.75 13.2426 9.75 12C9.75 10.7574 10.7574 9.75 12 9.75C13.2426 9.75 14.25 10.7574 14.25 12C14.25 13.2426 13.2426 14.25 12 14.25ZM36 14.25C34.7574 14.25 33.75 13.2426 33.75 12C33.75 10.7574 34.7574 9.75 36 9.75C37.2426 9.75 38.25 10.7574 38.25 12C38.25 13.2426 37.2426 14.25 36 14.25Z" fill="black"/>
</svg>
