<svg width="48" height="48" viewBox="0 0 48 48" fill="none" xmlns="http://www.w3.org/2000/svg">
<path fill-rule="evenodd" clip-rule="evenodd" d="M18.2945 7.19199C22.3722 5.80778 26.8141 5.95319 30.7926 7.60114C34.7711 9.24909 38.0149 12.2872 39.9195 16.1494C41.8241 20.0116 42.2597 24.4345 41.1452 28.594C40.0306 32.7536 37.4419 36.3661 33.8614 38.7586C30.2808 41.151 25.9526 42.1602 21.6832 41.5981C17.4137 41.0361 13.4942 38.941 10.6548 35.7034C7.8155 32.4657 6.25 28.3063 6.25 24C6.25 23.0335 7.0335 22.25 8 22.25C8.9665 22.25 9.75 23.0335 9.75 24C9.75 27.4572 11.0068 30.7964 13.2863 33.3957C15.5658 35.9949 18.7124 37.6768 22.14 38.1281C25.5676 38.5793 29.0423 37.7691 31.9169 35.8484C34.7914 33.9277 36.8697 31.0275 37.7644 27.6882C38.6592 24.3488 38.3095 20.798 36.7804 17.6974C35.2514 14.5968 32.6472 12.1577 29.4532 10.8347C26.2592 9.51172 22.6932 9.39498 19.4195 10.5062C17.1885 11.2636 15.1971 12.556 13.6077 14.25H15.9333C16.8998 14.25 17.6833 15.0335 17.6833 16C17.6833 16.9665 16.8998 17.75 15.9333 17.75H10.1436C9.27767 17.75 8.54194 17.1167 8.41308 16.2604L7.49905 10.1865C7.35523 9.23079 8.01342 8.33942 8.96915 8.1956C9.92489 8.05177 10.8163 8.70996 10.9601 9.6657L11.2576 11.643C13.203 9.63707 15.6095 8.10341 18.2945 7.19199ZM23 15.7772C23.9665 15.7772 24.75 16.5607 24.75 17.5272V23.748L28.9346 27.9326C29.618 28.6161 29.618 29.7241 28.9346 30.4075C28.2512 31.0909 27.1431 31.0909 26.4597 30.4075L21.7625 25.7104C21.4343 25.3822 21.25 24.937 21.25 24.4729V17.5272C21.25 16.5607 22.0335 15.7772 23 15.7772Z" fill="black"/>
</svg>
