<svg width="48" height="48" viewBox="0 0 48 48" fill="none" xmlns="http://www.w3.org/2000/svg">
<path fill-rule="evenodd" clip-rule="evenodd" d="M18.699 6.3606C19.6655 6.3606 20.449 7.1441 20.449 8.1106V10.139H26.2739H30.699C31.6655 10.139 32.449 10.9225 32.449 11.889C32.449 12.8555 31.6655 13.639 30.699 13.639H27.5213C27.472 13.776 27.4185 13.923 27.361 14.079C26.9899 15.0845 26.4472 16.4719 25.7596 18.0014C24.6441 20.4824 23.0796 23.4937 21.163 25.8275C21.8787 26.4283 22.6489 26.996 23.3437 27.4758C23.8919 27.8544 24.3754 28.1663 24.7206 28.3827C24.8929 28.4907 25.03 28.5745 25.1225 28.6304C25.1688 28.6584 25.2039 28.6793 25.2266 28.6928L25.2512 28.7074L25.2563 28.7104L25.2564 28.7104C25.2565 28.7105 25.2566 28.7106 25.2566 28.7106C26.0906 29.1989 26.3709 30.2707 25.8827 31.1048C25.3945 31.9389 24.3225 32.2193 23.4884 31.7311L24.3724 30.2208C23.4884 31.7311 23.4882 31.731 23.488 31.7309L23.4876 31.7306L23.4865 31.73L23.4834 31.7282L23.4733 31.7222L23.4384 31.7016C23.4088 31.6839 23.3664 31.6586 23.3126 31.6261C23.2051 31.5611 23.0515 31.4672 22.8614 31.3481C22.4818 31.11 21.9538 30.7695 21.3548 30.3558C20.5463 29.7974 19.5745 29.0828 18.6556 28.2891C16.6297 29.892 14.0942 31.2595 12.0102 32.2558C10.712 32.8765 9.5397 33.376 8.6913 33.7207C8.26654 33.8932 7.92152 34.0276 7.68079 34.1195C7.56038 34.1654 7.46596 34.2008 7.40057 34.2251L7.32461 34.2531L7.30366 34.2608L7.29756 34.263L7.29563 34.2637L7.29494 34.2639C7.29467 34.264 7.29443 34.2641 6.69899 32.6185L7.29443 34.2641C6.3856 34.593 5.38226 34.1228 5.05341 33.214C4.72459 32.3053 5.19461 31.302 6.10324 30.9731L6.1034 30.973L6.10355 30.973L6.10617 30.972L6.12037 30.9668L6.18236 30.9439C6.23824 30.9232 6.32268 30.8916 6.43266 30.8496C6.65268 30.7656 6.97448 30.6403 7.37396 30.4781C8.17405 30.153 9.27992 29.6817 10.5005 29.0982C12.4447 28.1686 14.5644 27.0077 16.2137 25.7546C15.2861 24.607 14.4485 23.3697 13.7959 22.3386C13.3236 21.5923 12.9345 20.932 12.6629 20.4571C12.5268 20.2193 12.4198 20.0273 12.346 19.8931C12.3091 19.826 12.2804 19.7734 12.2606 19.7367L12.2374 19.6938L12.231 19.6817L12.229 19.6781L12.2284 19.6768L12.2281 19.6764C12.228 19.6762 12.2279 19.676 13.7102 18.8867L12.2279 19.676C11.7736 18.8229 12.0969 17.7631 12.95 17.3088C13.8029 16.8546 14.8625 17.1777 15.3169 18.0304C15.317 18.0305 15.317 18.0305 15.317 18.0306L15.317 18.0306L15.3172 18.0309M15.3172 18.0309L15.3176 18.0316L15.3214 18.0387L15.3389 18.0712C15.3549 18.1008 15.3795 18.1461 15.4122 18.2055C15.4777 18.3244 15.5753 18.4996 15.7009 18.7192C15.9525 19.159 16.3145 19.7734 16.7534 20.4668C17.3236 21.3678 18.0018 22.3672 18.7188 23.2821C20.2025 21.3822 21.5279 18.8782 22.5673 16.5662C23.0535 15.4849 23.4637 14.4764 23.7863 13.639H18.699H6.69899C5.7325 13.639 4.94899 12.8555 4.94899 11.889C4.94899 10.9225 5.7325 10.139 6.69899 10.139H16.949V8.1106C16.949 7.1441 17.7325 6.3606 18.699 6.3606M33.9001 20.0929C34.6067 20.0964 35.2419 20.5245 35.5103 21.1782L40.4506 33.2103L42.9199 39.2243C43.2869 40.1183 42.8598 41.1407 41.9657 41.5078C41.0716 41.8749 40.0492 41.4477 39.6821 40.5536L37.6585 35.6249H29.9733L27.8861 40.5695C27.5103 41.4599 26.4837 41.8771 25.5933 41.5012C24.7029 41.1253 24.2858 40.0988 24.6616 39.2084L27.2003 33.1944L32.2792 21.1623C32.5541 20.5113 33.1934 20.0894 33.9001 20.0929ZM31.4507 32.1249H36.2214L33.8691 26.3959L31.4507 32.1249Z" fill="black"/>
</svg>
