<svg width="48" height="48" viewBox="0 0 48 48" fill="none" xmlns="http://www.w3.org/2000/svg">
<path fill-rule="evenodd" clip-rule="evenodd" d="M24 9.75C16.1299 9.75 9.75 16.1299 9.75 24C9.75 31.8701 16.1299 38.25 24 38.25C31.8701 38.25 38.25 31.8701 38.25 24C38.25 16.1299 31.8701 9.75 24 9.75ZM6.25 24C6.25 14.1969 14.1969 6.25 24 6.25C33.8031 6.25 41.75 14.1969 41.75 24C41.75 33.8031 33.8031 41.75 24 41.75C14.1969 41.75 6.25 33.8031 6.25 24ZM25.75 18.125C25.75 19.0915 24.9665 19.875 24 19.875C23.0335 19.875 22.25 19.0915 22.25 18.125C22.25 17.1585 23.0335 16.375 24 16.375C24.9665 16.375 25.75 17.1585 25.75 18.125ZM25.75 23.875C25.75 22.9085 24.9665 22.125 24 22.125C23.0335 22.125 22.25 22.9085 22.25 23.875V29.875C22.25 30.8415 23.0335 31.625 24 31.625C24.9665 31.625 25.75 30.8415 25.75 29.875V23.875Z" fill="black"/>
</svg>
