<svg width="48" height="48" viewBox="0 0 48 48" fill="none" xmlns="http://www.w3.org/2000/svg">
<path fill-rule="evenodd" clip-rule="evenodd" d="M38.25 12C38.25 10.7574 37.2426 9.75 36 9.75C34.7574 9.75 33.75 10.7574 33.75 12C33.75 13.2426 34.7574 14.25 36 14.25C37.2426 14.25 38.25 13.2426 38.25 12ZM36 6.25C39.1756 6.25 41.75 8.82436 41.75 12C41.75 15.1756 39.1756 17.75 36 17.75C33.4346 17.75 31.2615 16.0699 30.5212 13.75L28.179 13.75C28.142 13.7598 28.0686 13.7829 27.9668 13.8335C27.7229 13.9548 27.2336 14.2745 26.6757 15.1065C25.5292 16.8164 24.1132 20.6681 24.1132 29.0552C24.1132 31.0679 23.6489 32.6948 22.8624 33.9824C22.0783 35.2661 21.0338 36.1147 20.0199 36.6681C19.1167 37.1609 18.2283 37.4255 17.5332 37.5693C16.8502 39.9822 14.6316 41.75 12 41.75C8.82436 41.75 6.25 39.1756 6.25 36C6.25 32.8244 8.82436 30.25 12 30.25C14.4707 30.25 16.5774 31.8082 17.391 33.9955C17.6974 33.9 18.0231 33.7705 18.3433 33.5957C18.9202 33.2809 19.4666 32.8274 19.8755 32.1579C20.2821 31.4923 20.6132 30.5149 20.6132 29.0552C20.6132 21.0186 21.8537 16.4137 23.3992 13.75L17.4788 13.75C16.7385 16.0699 14.5654 17.75 12 17.75C8.82436 17.75 6.25 15.1756 6.25 12C6.25 8.82436 8.82436 6.25 12 6.25C14.5654 6.25 16.7385 7.93008 17.4788 10.25L28.0813 10.25L30.5212 10.25C31.2615 7.93008 33.4346 6.25 36 6.25ZM14.25 12C14.25 10.7574 13.2426 9.75 12 9.75C10.7574 9.75 9.75 10.7574 9.75 12C9.75 13.2426 10.7574 14.25 12 14.25C13.2426 14.25 14.25 13.2426 14.25 12ZM14.25 36C14.25 34.7574 13.2426 33.75 12 33.75C10.7574 33.75 9.75 34.7574 9.75 36C9.75 37.2426 10.7574 38.25 12 38.25C13.2426 38.25 14.25 37.2426 14.25 36Z" fill="black"/>
</svg>
