<svg width="48" height="48" viewBox="0 0 48 48" fill="none" xmlns="http://www.w3.org/2000/svg">
<path fill-rule="evenodd" clip-rule="evenodd" d="M6.25 8C6.25 7.0335 7.0335 6.25 8 6.25H20C20.9665 6.25 21.75 7.0335 21.75 8V20C21.75 20.9665 20.9665 21.75 20 21.75H8C7.0335 21.75 6.25 20.9665 6.25 20V8ZM9.75 9.75V18.25H18.25V9.75H9.75ZM26.25 8C26.25 7.0335 27.0335 6.25 28 6.25H40C40.9665 6.25 41.75 7.0335 41.75 8V20C41.75 20.9665 40.9665 21.75 40 21.75H28C27.0335 21.75 26.25 20.9665 26.25 20V8ZM29.75 9.75V18.25H38.25V9.75H29.75ZM6.25 28C6.25 27.0335 7.0335 26.25 8 26.25H20C20.9665 26.25 21.75 27.0335 21.75 28V40C21.75 40.9665 20.9665 41.75 20 41.75H8C7.0335 41.75 6.25 40.9665 6.25 40V28ZM9.75 29.75V38.25H18.25V29.75H9.75ZM26.25 28C26.25 27.0335 27.0335 26.25 28 26.25H40C40.9665 26.25 41.75 27.0335 41.75 28V40C41.75 40.9665 40.9665 41.75 40 41.75H28C27.0335 41.75 26.25 40.9665 26.25 40V28ZM29.75 29.75V38.25H38.25V29.75H29.75Z" fill="black"/>
</svg>
