<svg width="48" height="48" viewBox="0 0 48 48" fill="none" xmlns="http://www.w3.org/2000/svg">
<path fill-rule="evenodd" clip-rule="evenodd" d="M12.166 6.39996C12.8649 6.15257 13.6439 6.37241 14.1103 6.94869L40.01 38.9487C40.618 39.7 40.5019 40.8019 39.7507 41.4099C38.9994 42.018 37.8975 41.9019 37.2894 41.1506L14.5 12.9935V31.3372C14.5 32.3037 13.7165 33.0872 12.75 33.0872C11.7835 33.0872 11 32.3037 11 31.3372V8.04966C11 7.30828 11.4672 6.64735 12.166 6.39996ZM32.9695 6.29966C33.936 6.29966 34.7195 7.08316 34.7195 8.04966V18.7214C34.7195 19.6879 33.936 20.4714 32.9695 20.4714C32.003 20.4714 31.2195 19.6879 31.2195 18.7214V8.04966C31.2195 7.08316 32.003 6.29966 32.9695 6.29966Z" fill="black"/>
</svg>
