<svg width="48" height="48" viewBox="0 0 48 48" fill="none" xmlns="http://www.w3.org/2000/svg">
<path fill-rule="evenodd" clip-rule="evenodd" d="M32.5866 36.4441C34.6045 34.9206 36.1897 32.8803 37.1653 30.5249C38.3657 27.6268 38.5763 24.4135 37.7645 21.3835C36.9526 18.3535 35.1635 15.676 32.6749 13.7664C30.1862 11.8567 27.1369 10.8217 24 10.8217C20.8631 10.8217 17.8138 11.8567 15.3252 13.7664C12.8365 15.676 11.0475 18.3535 10.2356 21.3835C9.42367 24.4135 9.63428 27.6268 10.8347 30.5249C11.8104 32.8803 13.3955 34.9206 15.4134 36.4441L18.5045 31.0901C17.6273 30.2892 16.9304 29.3011 16.4704 28.1905C15.7838 26.533 15.6634 24.6952 16.1277 22.9623C16.5921 21.2293 17.6153 19.698 19.0386 18.6058C20.462 17.5136 22.2059 16.9217 24 16.9217C25.7941 16.9217 27.5381 17.5137 28.9614 18.6058C30.3848 19.698 31.408 21.2293 31.8723 22.9623C32.3366 24.6952 32.2162 26.533 31.5296 28.1905C31.0696 29.3011 30.3727 30.2892 29.4955 31.0901L32.5866 36.4441ZM40.3989 31.8643C38.9036 35.4742 36.2589 38.4899 32.875 40.4436C32.038 40.9269 30.9677 40.6401 30.4845 39.8031L25.6845 31.4892C25.4524 31.0873 25.3895 30.6096 25.5096 30.1613C25.6298 29.713 25.9231 29.3307 26.325 29.0987C27.2115 28.5869 27.9043 27.7968 28.296 26.8511C28.6878 25.9054 28.7565 24.8569 28.4916 23.8681C28.2266 22.8794 27.6428 22.0057 26.8307 21.3826C26.0187 20.7594 25.0236 20.4217 24 20.4217C22.9764 20.4217 21.9814 20.7594 21.1693 21.3826C20.3572 22.0057 19.7734 22.8794 19.5085 23.8681C19.2435 24.8569 19.3122 25.9054 19.704 26.8511C20.0957 27.7968 20.7885 28.5869 21.675 29.0987C22.512 29.5819 22.7988 30.6522 22.3156 31.4892L17.5156 39.8031C17.0323 40.6401 15.962 40.9269 15.125 40.4436C11.7411 38.4899 9.09644 35.4742 7.60115 31.8643C6.10585 28.2543 5.84352 24.2519 6.85482 20.4776C7.86613 16.7034 10.0946 13.3683 13.1945 10.9896C16.2944 8.61097 20.0926 7.32165 24 7.32166C27.9074 7.32166 31.7056 8.61097 34.8055 10.9896C37.9055 13.3683 40.1339 16.7034 41.1452 20.4776C42.1565 24.2519 41.8942 28.2543 40.3989 31.8643Z" fill="black"/>
</svg>
