<svg width="48" height="48" viewBox="0 0 48 48" fill="none" xmlns="http://www.w3.org/2000/svg">
<path fill-rule="evenodd" clip-rule="evenodd" d="M30.4783 7.04226C31.0072 6.23333 32.0917 6.00633 32.9007 6.53525L31.943 7.99995C32.9007 6.53525 32.9014 6.5357 32.9021 6.53618L32.9037 6.53723L32.9074 6.5397L32.9172 6.54615L32.9454 6.56507C32.9681 6.58036 32.9983 6.601 33.0355 6.627C33.1101 6.679 33.2129 6.7525 33.34 6.84756C33.5941 7.03757 33.946 7.31441 34.363 7.67852C35.1955 8.4055 36.2961 9.488 37.3955 10.9304C39.5984 13.8206 41.8144 18.1836 41.8144 23.9999C41.8144 29.8163 39.5984 34.1793 37.3955 37.0695C36.2961 38.5119 35.1955 39.5944 34.363 40.3214C33.946 40.6855 33.5941 40.9623 33.34 41.1523C33.2129 41.2474 33.1101 41.3209 33.0355 41.3729C32.9983 41.3989 32.9681 41.4195 32.9454 41.4348L32.9172 41.4537L32.9074 41.4602L32.9037 41.4627L32.9021 41.4637C32.9014 41.4642 32.9007 41.4646 31.943 39.9999L32.9007 41.4646C32.0917 41.9936 31.0072 41.7666 30.4783 40.9576C29.9503 40.1502 30.1755 39.0681 30.9809 38.5382C30.9818 38.5375 30.9828 38.5369 30.9838 38.5362L30.983 38.5367L30.9871 38.534C30.9952 38.5285 31.0106 38.518 31.0328 38.5025C31.0773 38.4715 31.1489 38.4205 31.2439 38.3495C31.4339 38.2073 31.7165 37.9858 32.0609 37.685C32.7512 37.0823 33.681 36.1691 34.6119 34.9478C36.4697 32.5104 38.3144 28.8734 38.3144 23.9999C38.3144 19.1265 36.4697 15.4895 34.6119 13.0521C33.681 11.8308 32.7512 10.9176 32.0609 10.3149C31.7165 10.0141 31.4339 9.79258 31.2439 9.65043C31.1489 9.57941 31.0773 9.52839 31.0328 9.49738C31.0106 9.48188 30.9952 9.4714 30.9871 9.46594L30.983 9.46315M30.9841 9.46384C30.983 9.46314 30.9819 9.46243 30.9808 9.46173C30.1755 8.93175 29.9503 7.8497 30.4783 7.04226M30.9838 38.5362L30.9841 38.5361C30.9841 38.536 30.9841 38.536 30.9841 38.536C30.984 38.5361 30.9839 38.5362 30.9838 38.5362ZM17.4014 7.03276C17.9346 7.83672 17.7165 8.92014 16.9147 9.45537C16.9132 9.45638 16.9117 9.45738 16.9102 9.45839L15.943 7.99995C16.9102 9.45839 16.9108 9.45797 16.9114 9.45757L16.9124 9.45687L16.914 9.45583L16.9087 9.45947C16.9008 9.46485 16.8857 9.47526 16.8639 9.49069C16.8203 9.52155 16.7499 9.57241 16.6565 9.64327C16.4695 9.78511 16.1913 10.0063 15.8521 10.3068C15.1723 10.9088 14.2559 11.8215 13.3383 13.0426C11.5071 15.4793 9.68558 19.1195 9.68558 23.9999C9.68558 28.8804 11.5071 32.5206 13.3383 34.9573C14.2559 36.1784 15.1723 37.0911 15.8521 37.6931C16.1913 37.9936 16.4695 38.2148 16.6565 38.3566C16.7499 38.4275 16.8203 38.4783 16.8639 38.5092C16.8857 38.5246 16.9008 38.535 16.9087 38.5404L16.9124 38.543L16.9124 38.543C16.9132 38.5435 16.914 38.544 16.9148 38.5446C17.7165 39.0798 17.9345 40.1632 17.4014 40.9671C16.8672 41.7726 15.7813 41.9925 14.9758 41.4584L15.943 39.9999C14.9758 41.4584 14.9751 41.4579 14.9744 41.4575L14.9728 41.4564L14.969 41.4539L14.9593 41.4474L14.9313 41.4283C14.9089 41.413 14.879 41.3923 14.8421 41.3662C14.7685 41.314 14.6668 41.2404 14.5413 41.1452C14.2904 40.9548 13.943 40.6777 13.5315 40.3133C12.71 39.5856 11.6244 38.5026 10.5403 37.06C8.36776 34.1691 6.18558 29.8093 6.18558 23.9999C6.18558 18.1906 8.36776 13.8308 10.5403 10.9399C11.6244 9.49728 12.71 8.41428 13.5315 7.68663C13.943 7.32221 14.2904 7.04505 14.5413 6.85472C14.6668 6.7595 14.7685 6.68584 14.8421 6.6337C14.879 6.60762 14.9089 6.5869 14.9313 6.57154L14.9593 6.55252L14.969 6.54601L14.9728 6.54351L14.9744 6.54244C14.9751 6.54197 14.9758 6.54151 15.9105 7.95095L14.9758 6.5415C15.7813 6.00734 16.8672 6.22728 17.4014 7.03276Z" fill="black"/>
</svg>
