<svg width="48" height="48" viewBox="0 0 48 48" fill="none" xmlns="http://www.w3.org/2000/svg">
<path fill-rule="evenodd" clip-rule="evenodd" d="M30.4783 7.0423C31.0072 6.23337 32.0917 6.00638 32.9007 6.5353L31.943 7.99999C32.9007 6.5353 32.9014 6.53575 32.9021 6.53622L32.9037 6.53727L32.9074 6.53975L32.9172 6.5462L32.9454 6.56512C32.9681 6.5804 32.9983 6.60104 33.0355 6.62705C33.1101 6.67904 33.2129 6.75255 33.34 6.84761C33.5941 7.03762 33.946 7.31446 34.363 7.67857C35.1955 8.40555 36.2961 9.48804 37.3955 10.9305C39.5984 13.8206 41.8144 18.1836 41.8144 24C41.8144 29.8163 39.5984 34.1793 37.3955 37.0695C36.2961 38.5119 35.1955 39.5944 34.363 40.3214C33.946 40.6855 33.5941 40.9624 33.34 41.1524C33.2129 41.2474 33.1101 41.3209 33.0355 41.3729C32.9983 41.3989 32.9681 41.4196 32.9454 41.4349L32.9172 41.4538L32.9074 41.4602L32.9037 41.4627L32.9021 41.4638C32.9014 41.4642 32.9007 41.4647 31.943 40L32.9007 41.4647C32.0917 41.9936 31.0072 41.7666 30.4783 40.9577C29.9503 40.1502 30.1755 39.0682 30.9809 38.5382C30.9818 38.5376 30.9828 38.5369 30.9838 38.5363L30.983 38.5368L30.9871 38.534C30.9952 38.5285 31.0106 38.5181 31.0328 38.5026C31.0773 38.4715 31.1489 38.4205 31.2439 38.3495C31.4339 38.2074 31.7165 37.9858 32.0609 37.6851C32.7512 37.0823 33.681 36.1692 34.6119 34.9478C36.4697 32.5104 38.3144 28.8734 38.3144 24C38.3144 19.1266 36.4697 15.4896 34.6119 13.0522C33.681 11.8308 32.7512 10.9177 32.0609 10.3149C31.7165 10.0142 31.4339 9.79263 31.2439 9.65048C31.1489 9.57946 31.0773 9.52844 31.0328 9.49743C31.0106 9.48193 30.9952 9.47144 30.9871 9.46598L30.983 9.4632M30.9841 9.46388C30.983 9.46318 30.9819 9.46248 30.9808 9.46178C30.1755 8.9318 29.9503 7.84975 30.4783 7.0423M30.9838 38.5363L30.9841 38.5361C30.9841 38.5361 30.9841 38.5361 30.9841 38.5361C30.984 38.5362 30.9839 38.5362 30.9838 38.5363ZM17.4014 7.03281C17.9346 7.83677 17.7165 8.92019 16.9147 9.45542C16.9132 9.45642 16.9117 9.45743 16.9102 9.45843L15.943 7.99999C16.9102 9.45843 16.9108 9.45801 16.9114 9.45762L16.9124 9.45692L16.914 9.45587L16.9087 9.45951C16.9008 9.4649 16.8857 9.47531 16.8639 9.49073C16.8203 9.52159 16.7499 9.57246 16.6565 9.64332C16.4695 9.78515 16.1913 10.0064 15.8521 10.3068C15.1723 10.9089 14.2559 11.8215 13.3383 13.0427C11.5071 15.4793 9.68558 19.1195 9.68558 24C9.68558 28.8804 11.5071 32.5207 13.3383 34.9573C14.2559 36.1784 15.1723 37.0911 15.8521 37.6932C16.1913 37.9936 16.4695 38.2148 16.6565 38.3567C16.7499 38.4275 16.8203 38.4784 16.8639 38.5093C16.8857 38.5247 16.9008 38.5351 16.9087 38.5405L16.9124 38.5431L16.9124 38.543C16.9132 38.5436 16.914 38.5441 16.9148 38.5446C17.7165 39.0799 17.9345 40.1632 17.4014 40.9672C16.8672 41.7727 15.7813 41.9926 14.9758 41.4584L15.943 40C14.9758 41.4584 14.9751 41.458 14.9744 41.4575L14.9728 41.4564L14.969 41.4539L14.9593 41.4474L14.9313 41.4284C14.9089 41.413 14.879 41.3923 14.8421 41.3662C14.7685 41.3141 14.6668 41.2404 14.5413 41.1452C14.2904 40.9549 13.943 40.6777 13.5315 40.3133C12.71 39.5857 11.6244 38.5027 10.5403 37.06C8.36776 34.1691 6.18558 29.8093 6.18558 24C6.18558 18.1907 8.36776 13.8309 10.5403 10.94C11.6244 9.49733 12.71 8.41433 13.5315 7.68668C13.943 7.32225 14.2904 7.04509 14.5413 6.85477C14.6668 6.75955 14.7685 6.68589 14.8421 6.63374C14.879 6.60767 14.9089 6.58695 14.9313 6.57159L14.9593 6.55256L14.969 6.54605L14.9728 6.54355L14.9744 6.54249C14.9751 6.54201 14.9758 6.54156 15.9105 7.951L14.9758 6.54155C15.7813 6.00739 16.8672 6.22733 17.4014 7.03281Z" fill="black"/>
</svg>
