<svg width="48" height="48" viewBox="0 0 48 48" fill="none" xmlns="http://www.w3.org/2000/svg">
<path fill-rule="evenodd" clip-rule="evenodd" d="M25.5069 7.12031C25.1332 6.47282 24.3895 6.1342 23.6558 6.27748C23.1031 6.38542 22.6479 6.74891 22.4132 7.23827L8.47568 31.3787C8.04541 32.124 8.22081 33.0715 8.88934 33.6133L18.4531 41.3646C18.9436 41.7621 19.6102 41.8646 20.1975 41.6328C20.7848 41.401 21.2017 40.8708 21.2884 40.2453L21.2884 40.2453L25.0246 13.2949L35.52 31.4734L26.019 35.8228C25.1402 36.2251 24.7539 37.2636 25.1562 38.1424C25.5584 39.0212 26.597 39.4075 27.4758 39.0052L38.7369 33.8501C39.6157 33.4479 40.0019 32.4093 39.5997 31.5305C39.5464 31.4142 39.482 31.3065 39.4083 31.2081L25.5069 7.12031ZM12.2538 31.8349L21.0263 16.6403L18.2473 36.6926L12.2538 31.8349Z" fill="black"/>
</svg>
