<svg width="48" height="48" viewBox="0 0 48 48" fill="none" xmlns="http://www.w3.org/2000/svg">
<path fill-rule="evenodd" clip-rule="evenodd" d="M25.5069 7.12037C25.1332 6.47288 24.3895 6.13426 23.6558 6.27754C23.1031 6.38548 22.6479 6.74897 22.4132 7.23833L8.47568 31.3788C8.04541 32.1241 8.22081 33.0715 8.88934 33.6133L18.4531 41.3646C18.9436 41.7622 19.6102 41.8647 20.1975 41.6329C20.7848 41.401 21.2017 40.8708 21.2884 40.2454L21.2884 40.2453L25.0246 13.295L35.52 31.4735L26.019 35.8228C25.1402 36.2251 24.7539 37.2636 25.1562 38.1424C25.5584 39.0212 26.597 39.4075 27.4758 39.0052L38.7369 33.8502C39.6157 33.4479 40.0019 32.4094 39.5997 31.5306C39.5464 31.4143 39.482 31.3066 39.4083 31.2082L25.5069 7.12037ZM12.2538 31.835L21.0263 16.6404L18.2473 36.6927L12.2538 31.835Z" fill="black"/>
</svg>
