<svg width="48" height="48" viewBox="0 0 48 48" fill="none" xmlns="http://www.w3.org/2000/svg">
<path fill-rule="evenodd" clip-rule="evenodd" d="M15.2859 37.9974C15.1053 37.9093 14.8669 37.6912 14.7116 37.0166C14.5539 36.3312 14.5502 35.4246 14.6613 34.4302C14.7699 33.4577 14.9749 32.5129 15.1571 31.8011C15.2475 31.4482 15.3304 31.1596 15.3899 30.9621C15.4196 30.8635 15.4433 30.788 15.4589 30.7389L15.4705 30.7031L16.5363 27.9145L18.4842 31.6246C18.5475 31.7453 18.6247 31.8581 18.7143 31.9609L22.5694 36.3844L22.57 36.3852L22.5702 36.3854L22.5718 36.3872L22.5769 36.3931L22.5937 36.4122C22.6078 36.4282 22.6276 36.4505 22.6528 36.4788C22.7032 36.5352 22.7755 36.6153 22.8674 36.7151C23.0509 36.9146 23.3139 37.1937 23.6384 37.5207C24.2832 38.1703 25.1903 39.0284 26.2143 39.8274C27.2195 40.6118 28.4316 41.4144 29.6828 41.8656C30.9189 42.3114 32.5372 42.5261 33.9721 41.5581C35.942 40.2292 36.2015 37.8122 36.1911 36.3744C36.1854 35.5728 36.0941 34.8436 36.0071 34.3212C35.9632 34.0574 35.9192 33.8399 35.8852 33.6845C35.8682 33.6066 35.8536 33.544 35.8426 33.4984C35.8371 33.4756 35.8325 33.457 35.829 33.443L35.8245 33.4253L35.8229 33.419L35.8223 33.4165L35.822 33.4154C35.8219 33.4149 35.8218 33.4144 34.128 33.8546L35.8218 33.4144C35.5787 32.479 34.6233 31.9178 33.6879 32.1608C32.7533 32.4037 32.1923 33.3575 32.4336 34.2921C32.4337 34.2927 32.4339 34.2933 32.434 34.2939L32.4395 34.3164C32.4452 34.34 32.4544 34.3792 32.466 34.4321C32.4891 34.5382 32.5216 34.6978 32.5547 34.8965C32.6218 35.2991 32.6872 35.8361 32.6912 36.3996C32.7005 37.6922 32.3928 38.4016 32.0148 38.6566C31.9155 38.7236 31.6287 38.8468 30.8702 38.5732C30.1267 38.3051 29.2545 37.7603 28.3674 37.068C27.4989 36.3904 26.7054 35.6424 26.1226 35.0552C25.8333 34.7637 25.6008 34.5167 25.4423 34.3445C25.3631 34.2586 25.3028 34.1916 25.2633 34.1474L25.2201 34.0988L25.2109 34.0882L25.2101 34.0874L25.2097 34.0869L25.2095 34.0867L25.2094 34.0866L25.2088 34.0859L23.88 32.5611H28.7649C28.8353 32.5611 28.9057 32.5568 28.9756 32.5484L34.6872 31.8555C34.733 31.85 34.7785 31.8426 34.8237 31.8335L34.4765 30.1182C34.8237 31.8335 34.8241 31.8334 34.8245 31.8333L34.8255 31.8331L34.8281 31.8326L34.8356 31.831L34.8591 31.8261C34.8787 31.822 34.9057 31.8163 34.9398 31.8088C35.008 31.794 35.1044 31.7724 35.225 31.744C35.4659 31.6873 35.8049 31.6029 36.209 31.4898C37.0112 31.2652 38.0981 30.9198 39.1931 30.4408C40.2678 29.9707 41.4598 29.3253 42.3902 28.4588C43.3288 27.5849 44.174 26.311 44.0588 24.6653C43.9106 22.5477 42.5184 20.9884 41.4792 20.0843C40.9287 19.6054 40.3922 19.2364 39.9953 18.9873C39.7953 18.8617 39.6265 18.764 39.5037 18.6956C39.4422 18.6613 39.3919 18.6343 39.3546 18.6146L39.3086 18.5905L39.2932 18.5826L39.2875 18.5797L39.2852 18.5786L39.2841 18.578C39.2836 18.5778 39.2831 18.5775 38.4964 20.1407L39.2831 18.5775C38.4198 18.143 37.3677 18.4906 36.9332 19.3539C36.4992 20.2162 36.8455 21.2669 37.7066 21.7024L37.7075 21.7028L37.7079 21.703L37.7087 21.7034L37.7195 21.7091C37.7353 21.7175 37.7629 21.7323 37.8008 21.7534C37.8767 21.7956 37.9922 21.8623 38.1345 21.9516C38.4224 22.1323 38.803 22.3953 39.182 22.725C40.0017 23.438 40.5179 24.202 40.5674 24.9097C40.5814 25.1101 40.5117 25.4257 40.0051 25.8974C39.4904 26.3766 38.7071 26.8332 37.7904 27.2342C36.8938 27.6264 35.9732 27.9213 35.2656 28.1193C34.9148 28.2175 34.6234 28.2899 34.4226 28.3372C34.3224 28.3608 34.2451 28.3781 34.1949 28.389L34.1891 28.3903L31.9717 28.6593L33.9522 25.1146C33.97 25.0826 33.9868 25.0502 34.0026 25.0172L36.9897 18.7832C37.0189 18.7223 37.0445 18.6599 37.0664 18.5961L35.4116 18.027C37.0664 18.5961 37.0666 18.5957 37.0667 18.5953L37.067 18.5943L37.0679 18.5918L37.0704 18.5846L37.0781 18.5615C37.0846 18.5424 37.0934 18.5159 37.1044 18.4823C37.1264 18.4151 37.1571 18.3198 37.1943 18.1997C37.2685 17.9599 37.3691 17.6199 37.4782 17.2083C37.6948 16.3913 37.9526 15.2637 38.0993 14.0627C38.2432 12.8842 38.2959 11.5154 38.024 10.2653C37.7504 9.0067 37.0813 7.61438 35.5848 6.88456C34.5433 6.3767 33.4159 6.32702 32.4546 6.4295C31.48 6.53338 30.5288 6.80934 29.7271 7.10425C28.9172 7.40211 28.2053 7.73972 27.6987 8.00045C27.4438 8.13167 27.2367 8.24556 27.0905 8.32836C27.0173 8.36982 26.9591 8.40364 26.9175 8.42812L26.8677 8.45768L26.8524 8.46685L26.8473 8.46997L26.8453 8.47115L26.8445 8.47165C26.8441 8.47187 26.8438 8.47208 27.7538 9.96686L26.8438 8.47208C26.0182 8.97467 25.7564 10.0513 26.259 10.8769C26.7614 11.702 27.8372 11.964 28.6626 11.4624L28.6638 11.4616L28.666 11.4603L28.6928 11.4444C28.7187 11.4292 28.76 11.4052 28.8153 11.3738C28.9262 11.311 29.092 11.2197 29.3004 11.1125C29.7205 10.8962 30.2973 10.6237 30.9353 10.3891C31.5813 10.1515 32.237 9.97252 32.8255 9.90978C33.4273 9.84563 33.8193 9.91762 34.0506 10.0304C34.2175 10.1118 34.4544 10.3212 34.604 11.009C34.7554 11.7053 34.7486 12.6274 34.6251 13.6385C34.5044 14.6271 34.2869 15.5877 34.095 16.3114C33.9999 16.6702 33.913 16.9638 33.8507 17.1649C33.8239 17.2517 33.8017 17.3209 33.7856 17.3705L32.3328 20.4024L30.2162 16.4752C30.1601 16.3712 30.0937 16.2731 30.0179 16.1825L26.162 11.5734C26.1284 11.5332 26.093 11.4946 26.056 11.4577L24.8197 12.6962C26.056 11.4577 26.0557 11.4574 26.0555 11.4571L26.0548 11.4564L26.0529 11.4546L26.0473 11.449L26.0287 11.4306C26.013 11.4151 25.9908 11.3933 25.9625 11.3657C25.9058 11.3106 25.8244 11.2321 25.721 11.1341C25.5142 10.9384 25.2183 10.6642 24.8542 10.343C24.1302 9.70413 23.1185 8.86292 21.9918 8.08185C20.8828 7.31307 19.5738 6.53979 18.263 6.11013C16.9957 5.6947 15.3264 5.47653 13.8899 6.44558C11.8963 7.79045 11.682 10.2767 11.7146 11.7268C11.7329 12.544 11.836 13.2889 11.9315 13.8228C11.9798 14.0923 12.0273 14.3146 12.0638 14.4731C12.0821 14.5525 12.0976 14.6164 12.1093 14.6627C12.1151 14.6858 12.1199 14.7046 12.1236 14.7188L12.1283 14.7366L12.1299 14.7428L12.1306 14.7453L12.1309 14.7463C12.131 14.7468 12.1311 14.7473 13.8206 14.2908L12.1311 14.7473C12.3833 15.6803 13.344 16.2323 14.277 15.9802C15.2098 15.7282 15.7618 14.7679 15.5102 13.8351L15.5102 13.8351L15.51 13.8343L15.5038 13.81C15.4975 13.7851 15.4875 13.744 15.4748 13.6888C15.4493 13.5781 15.4137 13.4122 15.3768 13.206C15.302 12.7883 15.2268 12.2316 15.2137 11.6482C15.1833 10.2971 15.493 9.58607 15.8473 9.34709C15.945 9.28116 16.2866 9.1455 17.1728 9.43599C18.0156 9.71226 19.0025 10.2683 19.9978 10.9583C20.9753 11.6359 21.876 12.3828 22.5384 12.9673C22.8676 13.2578 23.1334 13.5041 23.315 13.6761C23.4057 13.7619 23.4752 13.829 23.5209 13.8735L23.5322 13.8845L24.9341 15.5603L20.0313 15.5666C19.9411 15.5667 19.851 15.5738 19.7618 15.5878L13.2517 16.6114C13.2265 16.6153 13.2014 16.6198 13.1764 16.6249L13.5235 18.3401C13.1764 16.6249 13.1759 16.625 13.1755 16.6251L13.1745 16.6253L13.1719 16.6258L13.1644 16.6273L13.1409 16.6322L13.1194 16.6368L13.0602 16.6495C12.992 16.6644 12.8956 16.6859 12.775 16.7143C12.5341 16.7711 12.1951 16.8555 11.791 16.9686C10.9888 17.1931 9.90187 17.5386 8.80694 18.0176C7.73222 18.4877 6.54024 19.1331 5.60977 19.9995C4.6712 20.8735 3.82598 22.1473 3.94116 23.793C4.09685 26.0175 5.8082 27.6449 6.9727 28.543C7.61286 29.0367 8.23735 29.423 8.6979 29.6848C8.92996 29.8168 9.12492 29.9197 9.26531 29.9912C9.33561 30.027 9.39254 30.0551 9.43395 30.0753L9.48426 30.0994L9.50025 30.107L9.50587 30.1096L9.50808 30.1107L9.50903 30.1111C9.50946 30.1113 9.50987 30.1115 10.2368 28.5481L9.50988 30.1115C10.3863 30.519 11.4271 30.1388 11.8345 29.2624C12.2416 28.387 11.8627 27.3476 10.9884 26.9391L10.9882 26.9391L10.9879 26.9389L10.9869 26.9384L10.9862 26.9381L10.986 26.938L10.9855 26.9378L10.9633 26.9271C10.9407 26.9161 10.9037 26.8979 10.8543 26.8727C10.7553 26.8223 10.6079 26.7446 10.4278 26.6422C10.0641 26.4354 9.58548 26.138 9.11016 25.7714C8.0437 24.949 7.47466 24.1494 7.43262 23.5487C7.41859 23.3482 7.48834 23.0327 7.99491 22.561C8.50958 22.0817 9.2929 21.6252 10.2096 21.2242C11.1062 20.832 12.0268 20.5371 12.7344 20.339C13.0852 20.2409 13.3766 20.1684 13.5774 20.1211C13.6776 20.0975 13.7549 20.0803 13.8051 20.0693L13.8399 20.0619L16.642 19.6213L14.7776 22.7816C14.7278 22.8661 14.6851 22.9545 14.6501 23.0461L12.1859 29.4935C12.1773 29.5159 12.1692 29.5385 12.1616 29.5613L13.8206 30.1182C12.1616 29.5613 12.1614 29.5617 12.1613 29.5621L12.161 29.5631L12.1601 29.5656L12.1577 29.5728L12.1502 29.5957C12.144 29.6146 12.1354 29.641 12.1248 29.6742C12.1036 29.7407 12.074 29.8349 12.0383 29.9536C11.967 30.1906 11.8706 30.5264 11.7665 30.9329C11.5599 31.7398 11.3156 32.8539 11.1829 34.0416C11.0527 35.2074 11.0157 36.5624 11.3008 37.8015C11.5884 39.0513 12.2689 40.4202 13.7518 41.1433C15.7319 42.1089 17.9884 41.5 19.361 40.9735C20.1125 40.6852 20.7638 40.3565 21.2247 40.1023C21.4569 39.9742 21.6451 39.8627 21.7784 39.7811C21.8452 39.7402 21.8985 39.7067 21.937 39.6821L21.9835 39.6521L21.9982 39.6425L22.0034 39.6391L22.0054 39.6378L22.0063 39.6372C22.0066 39.6369 22.007 39.6367 21.0406 38.1778L22.007 39.6367C22.8128 39.1029 23.0333 38.0171 22.4995 37.2113C21.9664 36.4065 20.8824 36.1856 20.0769 36.717L20.0764 36.7174L20.0754 36.718L20.0748 36.7184L20.0747 36.7185L20.0536 36.732C20.0326 36.7454 19.998 36.7672 19.9511 36.7959C19.8571 36.8535 19.7147 36.9381 19.5344 37.0375C19.1701 37.2384 18.6683 37.4906 18.1076 37.7056C16.8557 38.1858 15.8513 38.2731 15.2859 37.9974ZM21.0913 29.0611L18.2874 23.7205L21.0338 19.0653L27.6316 19.0568L30.4283 24.2459L27.738 29.0611L21.0913 29.0611ZM27.3251 23.9675C27.3251 25.5616 26.0335 26.8532 24.4395 26.8532C22.8454 26.8532 21.5538 25.5616 21.5538 23.9675C21.5538 22.3735 22.8454 21.0819 24.4395 21.0819C26.0335 21.0819 27.3251 22.3735 27.3251 23.9675Z" fill="black"/>
</svg>
