<svg width="48" height="48" viewBox="0 0 48 48" fill="none" xmlns="http://www.w3.org/2000/svg">
<path fill-rule="evenodd" clip-rule="evenodd" d="M6.2561 9.01349C6.2561 8.04699 7.03961 7.26349 8.0061 7.26349H18.6034C19.1456 7.26349 19.6571 7.51476 19.9885 7.94384L22.1134 10.6953H38.1635C39.13 10.6953 39.9135 11.4788 39.9135 12.4453V17.3496C39.9135 18.3161 39.13 19.0996 38.1635 19.0996C37.197 19.0996 36.4135 18.3161 36.4135 17.3496V14.1953H21.2538C20.7116 14.1953 20.2001 13.944 19.8687 13.5149L17.7438 10.7635H9.7561V25.1503L10.1764 23.792C10.4032 23.059 11.0809 22.5592 11.8482 22.5592H39.9939C40.5309 22.5592 41.0381 22.8058 41.3699 23.228C41.7017 23.6503 41.8212 24.2015 41.6942 24.7232L38.6706 37.1408C38.4796 37.9249 37.7773 38.4768 36.9702 38.4768H20.8662C21.4322 37.4242 21.781 36.2376 21.8529 34.9768H35.5952L37.7666 26.0592H13.687C13.6027 26.0567 13.5182 26.0555 13.4334 26.0555C13.3486 26.0555 13.2641 26.0567 13.1799 26.0592H13.1386L13.1382 26.0606C10.2289 26.1607 7.6938 27.7343 6.2561 30.0585V9.01349ZM10.6921 34.4865C10.6921 32.9677 11.9234 31.7365 13.4421 31.7365C14.9609 31.7365 16.1921 32.9677 16.1921 34.4865C16.1921 36.0053 14.9609 37.2365 13.4421 37.2365C11.9234 37.2365 10.6921 36.0053 10.6921 34.4865ZM13.4421 28.2365C9.99036 28.2365 7.19214 31.0347 7.19214 34.4865C7.19214 37.9383 9.99036 40.7365 13.4421 40.7365C16.8939 40.7365 19.6921 37.9383 19.6921 34.4865C19.6921 31.0347 16.8939 28.2365 13.4421 28.2365Z" fill="black"/>
</svg>
