<svg width="48" height="48" viewBox="0 0 48 48" fill="none" xmlns="http://www.w3.org/2000/svg">
<path fill-rule="evenodd" clip-rule="evenodd" d="M6.25 9.01233C6.25 8.04583 7.0335 7.26233 8 7.26233H18.5973C19.1395 7.26233 19.651 7.5136 19.9824 7.94268L22.1073 10.6941H39.9755C40.9413 10.6941 41.7246 11.4766 41.7255 12.4424L41.75 36.7239C41.7505 37.1883 41.5663 37.6339 41.2381 37.9624C40.9098 38.291 40.4644 38.4756 40 38.4756H20.8662C21.4322 37.423 21.781 36.2364 21.8529 34.9756H38.2482L38.2273 14.1941H21.2477C20.7055 14.1941 20.194 13.9429 19.8626 13.5138L17.7377 10.7623H9.75V26.8991C8.30402 27.6023 7.08911 28.7065 6.25 30.0672V9.01233ZM10.6834 34.4877C10.6834 32.9689 11.9146 31.7377 13.4334 31.7377C14.9522 31.7377 16.1834 32.9689 16.1834 34.4877C16.1834 36.0065 14.9522 37.2377 13.4334 37.2377C11.9146 37.2377 10.6834 36.0065 10.6834 34.4877ZM13.4334 28.2377C9.98163 28.2377 7.18341 31.0359 7.18341 34.4877C7.18341 37.9395 9.98163 40.7377 13.4334 40.7377C16.8852 40.7377 19.6834 37.9395 19.6834 34.4877C19.6834 31.0359 16.8852 28.2377 13.4334 28.2377Z" fill="black"/>
</svg>
