<svg width="48" height="48" viewBox="0 0 48 48" fill="none" xmlns="http://www.w3.org/2000/svg">
<path fill-rule="evenodd" clip-rule="evenodd" d="M21.0521 8.87207C20.5875 9.7306 19.7788 11.225 18.3362 12.6676C17.1974 13.8064 15.9989 14.3057 14.7908 14.4148C13.8962 14.4956 12.9969 14.3432 12.3947 14.2411C12.2807 14.2217 12.1774 14.2042 12.0867 14.1904C11.396 14.0853 11.1185 14.1125 10.9109 14.204C10.7249 14.2861 10.2895 14.563 9.71558 15.6971C9.11939 16.8752 9.06616 17.4829 9.09493 17.7746C9.11948 18.0235 9.21919 18.2509 9.56381 18.6678C9.65567 18.7789 9.76837 18.9029 9.89454 19.0417C10.6967 19.924 12.0437 21.4055 12.0437 24C12.0437 26.5922 10.7198 28.0511 9.92823 28.9234C9.80391 29.0604 9.69272 29.183 9.60184 29.2931C9.26723 29.6989 9.1629 29.9282 9.13539 30.1925C9.10301 30.5036 9.15581 31.1323 9.73266 32.3375C10.2885 33.4988 10.7131 33.7656 10.876 33.8387C11.0612 33.9218 11.323 33.9522 12.0222 33.8388C12.1136 33.824 12.218 33.8052 12.3333 33.7845C12.9395 33.6754 13.8465 33.5123 14.7491 33.5856C15.9701 33.6848 17.185 34.1811 18.3362 35.3324C19.7954 36.7916 20.6017 38.2889 21.0635 39.1466C21.1949 39.3905 21.2983 39.5827 21.3811 39.7076C21.5693 39.9917 21.6965 40.0968 21.9025 40.1845C22.1872 40.3057 22.747 40.4361 23.9038 40.4361C25.0488 40.4361 25.674 40.3085 26.0437 40.1638C26.359 40.0403 26.5681 39.8751 26.8164 39.5687C27.0253 39.311 27.1921 39.052 27.4258 38.6892C27.5625 38.4769 27.7222 38.2291 27.9265 37.9252C28.4305 37.1756 29.0802 36.2975 30.0453 35.3324C31.1648 34.2129 32.3197 33.6995 33.5284 33.6577C34.3692 33.6285 35.2273 33.8647 35.7111 33.9978C35.8085 34.0246 35.8907 34.0473 35.9546 34.0627C36.4549 34.1837 36.566 34.1426 36.6668 34.0918C36.856 33.9964 37.3503 33.6291 38.0937 32.2586C38.8368 30.8887 38.928 30.2057 38.909 29.9056C38.8964 29.7076 38.8371 29.5454 38.507 29.2018C38.4161 29.1072 38.2956 28.9976 38.1557 28.8704C37.3064 28.0981 35.742 26.6756 35.742 23.9999C35.742 21.4108 37.0637 19.9086 37.8623 19.001C37.9857 18.8607 38.0966 18.7347 38.1882 18.621C38.5393 18.1854 38.6433 17.9481 38.6691 17.6981C38.6981 17.417 38.6513 16.8335 38.0735 15.7037C37.5194 14.6204 37.0959 14.3572 36.9092 14.2766C36.6897 14.1818 36.3972 14.1563 35.6937 14.2532C35.6044 14.2655 35.5039 14.2808 35.3939 14.2977C34.7827 14.3911 33.8795 14.5293 32.9753 14.4338C31.775 14.3072 30.583 13.8011 29.4495 12.6675C28.0016 11.2197 27.1987 9.72382 26.7377 8.86485C26.6063 8.62014 26.5027 8.42712 26.4199 8.30163C26.2298 8.0138 26.1003 7.90613 25.8938 7.81731C25.6106 7.69553 25.0538 7.56387 23.9038 7.56384C22.754 7.56381 22.1947 7.69523 21.9085 7.81787C21.698 7.90807 21.5658 8.01801 21.3738 8.30637C21.2903 8.43177 21.1854 8.62575 21.0521 8.87207ZM20.5301 4.60071C21.4516 4.20591 22.5608 4.06381 23.9038 4.06384C25.2466 4.06388 26.3557 4.20604 27.2765 4.60204C28.2739 5.03098 28.8863 5.68502 29.3406 6.37301C29.6421 6.82963 29.8555 7.23009 30.0621 7.61784C30.4824 8.40675 30.8747 9.14304 31.9243 10.1927C32.5038 10.7721 32.9567 10.9125 33.3426 10.9532C33.7608 10.9973 34.142 10.9416 34.7405 10.854C34.8852 10.8328 35.0425 10.8098 35.2162 10.7859C35.9909 10.6792 37.1274 10.5583 38.297 11.0635C39.4994 11.5829 40.425 12.6151 41.1896 14.11C41.9304 15.5584 42.2756 16.8447 42.1506 18.057C42.0225 19.3003 41.4268 20.1802 40.9133 20.8173C40.7301 21.0446 40.5598 21.2452 40.4034 21.4294C39.6681 22.2953 39.242 22.7972 39.242 23.9999C39.242 25.0417 39.5831 25.3683 40.322 26.0758C40.5272 26.2723 40.7631 26.4982 41.0309 26.777C41.6381 27.409 42.315 28.3154 42.4019 29.6837C42.4824 30.9498 42.0364 32.3307 41.1702 33.9275C40.3044 35.5235 39.3813 36.6432 38.2418 37.2174C37.0141 37.836 35.8854 37.6469 35.1316 37.4646C34.8683 37.4009 34.6631 37.3463 34.4947 37.3015C34.1048 37.1978 33.9119 37.1465 33.6496 37.1556C33.4725 37.1617 33.1243 37.2031 32.5202 37.8072C31.7618 38.5657 31.2524 39.2514 30.831 39.8781C30.7264 40.0337 30.6143 40.2071 30.4969 40.3885C30.1975 40.8515 29.8642 41.3669 29.5354 41.7725C28.995 42.4393 28.3183 43.0319 27.3198 43.4228C26.3757 43.7925 25.2592 43.9361 23.9038 43.9361C22.5602 43.9361 21.4512 43.7964 20.5313 43.4047C19.5326 42.9795 18.9192 42.3287 18.4635 41.6409C18.1628 41.1871 17.9496 40.7885 17.7427 40.4014C17.3202 39.6112 16.9236 38.8695 15.8613 37.8072C15.2841 37.23 14.8408 37.1046 14.4657 37.0741C14.0558 37.0408 13.6881 37.1045 13.1093 37.2046C12.9511 37.232 12.7772 37.2621 12.5824 37.2937C11.8016 37.4203 10.6374 37.5681 9.44255 37.0317C8.2254 36.4853 7.31601 35.3954 6.57563 33.8485C5.85629 32.3456 5.52844 31.0383 5.65419 29.8302C5.78481 28.5752 6.37739 27.7019 6.90171 27.0662C7.09369 26.8334 7.27043 26.6313 7.43106 26.4476C8.14757 25.6283 8.54369 25.1753 8.54369 24C8.54369 22.8271 8.13581 22.3612 7.40491 21.5263C7.2412 21.3393 7.06129 21.1338 6.86613 20.8977C6.33956 20.2607 5.73621 19.3792 5.61184 18.1182C5.49168 16.9 5.84364 15.5968 6.59272 14.1167C7.36402 12.5926 8.29091 11.5343 9.49857 11.0017C10.6848 10.4785 11.8325 10.6115 12.6131 10.7302C12.8056 10.7595 12.9773 10.7875 13.1333 10.8129C13.7088 10.9065 14.0715 10.9655 14.4759 10.929C14.8459 10.8956 15.2862 10.7678 15.8613 10.1927C16.9114 9.14263 17.3058 8.40758 17.7279 7.62103C17.9374 7.23053 18.1538 6.82734 18.4605 6.3666C18.9181 5.67936 19.5329 5.02795 20.5301 4.60071ZM24 20.2258C21.9156 20.2258 20.2258 21.9156 20.2258 24C20.2258 26.0844 21.9156 27.7742 24 27.7742C26.0844 27.7742 27.7742 26.0844 27.7742 24C27.7742 21.9156 26.0844 20.2258 24 20.2258ZM16.7258 24C16.7258 19.9826 19.9826 16.7258 24 16.7258C28.0174 16.7258 31.2742 19.9826 31.2742 24C31.2742 28.0174 28.0174 31.2742 24 31.2742C19.9826 31.2742 16.7258 28.0174 16.7258 24Z" fill="black"/>
</svg>
