<svg width="48" height="48" viewBox="0 0 48 48" fill="none" xmlns="http://www.w3.org/2000/svg">
<path fill-rule="evenodd" clip-rule="evenodd" d="M4.76257 12.7626C5.44598 12.0791 6.55402 12.0791 7.23744 12.7626L17.2374 22.7626C17.5656 23.0908 17.75 23.5359 17.75 24C17.75 24.4641 17.5656 24.9092 17.2374 25.2374L7.23744 35.2374C6.55402 35.9209 5.44598 35.9209 4.76256 35.2374C4.07915 34.554 4.07915 33.446 4.76256 32.7626L13.5251 24L4.76256 15.2374C4.07915 14.554 4.07915 13.446 4.76257 12.7626ZM25.2334 33C25.2334 32.0335 26.0169 31.25 26.9834 31.25H42C42.9665 31.25 43.75 32.0335 43.75 33C43.75 33.9665 42.9665 34.75 42 34.75H26.9834C26.0169 34.75 25.2334 33.9665 25.2334 33Z" fill="black"/>
</svg>
