<svg width="48" height="48" viewBox="0 0 48 48" fill="none" xmlns="http://www.w3.org/2000/svg">
<path fill-rule="evenodd" clip-rule="evenodd" d="M23.6118 6.12532C23.8673 6.06719 24.1327 6.06719 24.3882 6.12532L38.3882 9.31017C39.1848 9.49139 39.75 10.1996 39.75 11.0166V27.9533C39.75 30.4737 38.6243 32.6132 37.135 34.3317C35.6521 36.0427 33.7274 37.4359 31.8905 38.5217C30.0422 39.6143 28.2072 40.4397 26.8424 40.9904C26.1574 41.2668 25.5846 41.4766 25.1796 41.6183C24.977 41.6892 24.8159 41.7433 24.7034 41.7802C24.6471 41.7987 24.603 41.8129 24.5717 41.8229L24.5347 41.8346L24.5237 41.8381L24.5201 41.8392L24.5188 41.8396C24.5183 41.8398 24.5178 41.8399 24 40.1683C23.4822 41.8399 23.4817 41.8398 23.4812 41.8396L23.4799 41.8392L23.4763 41.8381L23.4653 41.8346L23.4282 41.8229C23.397 41.8129 23.3529 41.7987 23.2966 41.7802C23.1841 41.7433 23.023 41.6892 22.8204 41.6183C22.4154 41.4766 21.8426 41.2668 21.1576 40.9904C19.7928 40.4397 17.9578 39.6143 16.1095 38.5217C14.2726 37.4359 12.3479 36.0427 10.865 34.3317C9.37567 32.6132 8.25 30.4737 8.25 27.9533V11.0166C8.25 10.1996 8.81523 9.49139 9.61181 9.31017L23.6118 6.12532ZM24 40.1683L23.4822 41.8399C23.8195 41.9444 24.1805 41.9444 24.5178 41.8399L24 40.1683ZM24 38.323C24.0078 38.3203 24.0156 38.3175 24.0235 38.3148C24.3841 38.1886 24.9051 37.998 25.5326 37.7447C26.7928 37.2362 28.4578 36.485 30.1095 35.5087C31.7726 34.5256 33.3479 33.3574 34.49 32.0395C35.6257 30.7291 36.25 29.3722 36.25 27.9533V12.4132L24 9.62644L11.75 12.4132V27.9533C11.75 29.3722 12.3743 30.7291 13.51 32.0395C14.6521 33.3574 16.2274 34.5256 17.8905 35.5087C19.5422 36.485 21.2072 37.2362 22.4674 37.7447C23.0949 37.998 23.6159 38.1886 23.9765 38.3148C23.9844 38.3175 23.9922 38.3203 24 38.323ZM32.1703 17.1694C32.8564 17.8502 32.8606 18.9582 32.1798 19.6442L22.7105 29.1861C22.3762 29.5229 21.9196 29.7095 21.4451 29.7032C20.9706 29.6969 20.5191 29.4982 20.1939 29.1527L16.2097 24.919C15.5474 24.2152 15.581 23.1076 16.2848 22.4453C16.9887 21.7829 18.0962 21.8165 18.7586 22.5204L21.5017 25.4353L29.6955 17.1788C30.3763 16.4928 31.4843 16.4886 32.1703 17.1694Z" fill="black"/>
</svg>
