<svg width="48" height="48" viewBox="0 0 48 48" fill="none" xmlns="http://www.w3.org/2000/svg">
<path fill-rule="evenodd" clip-rule="evenodd" d="M29.734 6.34665C31.5499 6.61659 33.2138 7.45397 34.9966 8.86699C35.0199 8.8855 35.0428 8.90459 35.0652 8.92426C38.4161 11.8709 38.8957 15.3828 38.5139 18.073C38.3269 19.3905 37.9375 20.5131 37.5996 21.3021C37.4295 21.6993 37.2692 22.0196 37.1478 22.2466C37.1322 22.2757 37.1173 22.3032 37.103 22.3293C38.3152 24.7529 38.4713 27.1014 37.8722 29.1948C37.2231 31.4625 35.7358 33.2723 34.0937 34.5116C34.0565 34.5396 34.0182 34.5662 33.979 34.5912L24.68 40.5083C24.624 40.5439 24.566 40.5764 24.5063 40.6054C21.0225 42.3009 16.4797 42.3738 12.7417 39.02C9.57039 36.1747 9.132 32.7095 9.47196 30.0818C9.63977 28.7848 9.99539 27.6719 10.3051 26.887C10.4609 26.4919 10.608 26.1727 10.7195 25.9464C10.772 25.8396 10.8169 25.7531 10.8513 25.6885C10.6062 25.1854 10.3975 24.6454 10.2326 24.0669C9.72593 22.2893 9.46573 20.1508 10.3321 17.9232C11.1956 15.7028 13.0656 13.6801 16.2285 11.882L23.9116 7.11548C24.0507 7.02918 24.2012 6.96282 24.3588 6.91835C26.2073 6.39657 27.9473 6.08105 29.734 6.34665ZM13.2751 28.9948C13.138 29.4504 13.0155 29.9709 12.943 30.5309C12.705 32.3707 13.001 34.5504 15.079 36.4149C17.5443 38.6267 20.4636 38.6466 22.889 37.4994L32.0382 31.6776C33.1924 30.7918 34.1177 29.593 34.5073 28.2318C34.8882 26.9009 34.8053 25.2575 33.6626 23.3271C33.3387 22.78 32.937 22.2536 32.3121 21.7468C31.8007 21.4256 31.2701 21.1051 30.79 20.8389C30.4923 20.6738 30.2449 20.5471 30.0513 20.4563C29.9153 20.3993 29.7742 20.3426 29.6278 20.2861C28.3907 19.9025 27.3432 19.8448 26.6214 19.8778C26.2555 19.8945 25.9746 19.9345 25.7974 19.9667C25.7929 19.9676 25.7884 19.9684 25.7839 19.9692L20.9953 22.9725C20.1765 23.486 19.0964 23.2386 18.5829 22.4198C18.0694 21.601 18.3168 20.5209 19.1356 20.0074L24.1752 16.8468L24.1875 16.8391L27.4543 14.8277C28.2773 14.3209 29.3553 14.5773 29.862 15.4003C30.1249 15.8273 30.1824 16.3229 30.0619 16.7718C30.2805 16.8284 30.5034 16.8921 30.7303 16.9638C30.9629 17.0372 31.2129 17.1386 31.4672 17.2551C32.6268 17.7468 33.5628 18.2884 34.335 18.8846C34.4554 18.9609 34.5736 19.0363 34.6888 19.1103C34.8367 18.6579 34.9693 18.1399 35.0486 17.5812C35.3044 15.7786 35.0227 13.5668 32.7868 11.5816C31.3293 10.4327 30.2339 9.95942 29.2194 9.80861C28.2167 9.65956 27.1079 9.79588 25.5436 10.2218L18.0446 14.8741C18.0248 14.8864 18.0048 14.8982 17.9846 14.9097C15.2525 16.4576 14.0779 17.9476 13.5941 19.1918C13.1103 20.4358 13.2037 21.7222 13.5985 23.1074C14.0477 24.683 15.0122 25.8449 16.2149 26.6537C16.8058 26.9856 17.3799 27.2886 17.8366 27.4929C17.8674 27.5067 17.8978 27.5213 17.9277 27.5368C18.5059 27.8367 19.5985 27.9445 20.8267 27.883C21.3889 27.8548 21.8982 27.7964 22.2674 27.7447C22.3689 27.7304 22.4589 27.7169 22.5357 27.7047L27.0376 24.9368C27.861 24.4305 28.9388 24.6876 29.445 25.5109C29.9512 26.3343 29.6941 27.4121 28.8708 27.9183L24.0948 30.8548L20.5315 33.1303C19.717 33.6505 18.6349 33.4118 18.1147 32.5973C17.8368 32.162 17.7755 31.6504 17.9029 31.1889C17.3826 31.0796 16.8707 30.9188 16.4013 30.6869C15.7285 30.4153 15.0565 30.0737 14.4128 29.6558C14.0142 29.4309 13.6259 29.2038 13.2751 28.9948Z" fill="black"/>
</svg>
