<svg width="48" height="48" viewBox="0 0 48 48" fill="none" xmlns="http://www.w3.org/2000/svg">
<path fill-rule="evenodd" clip-rule="evenodd" d="M29.734 6.34671C31.5499 6.61665 33.2138 7.45403 34.9966 8.86705C35.0199 8.88556 35.0428 8.90465 35.0652 8.92432C38.4161 11.871 38.8957 15.3828 38.5139 18.0731C38.3269 19.3906 37.9375 20.5132 37.5996 21.3021C37.4295 21.6994 37.2692 22.0197 37.1478 22.2466C37.1322 22.2757 37.1173 22.3033 37.103 22.3294C38.3152 24.753 38.4713 27.1014 37.8722 29.1949C37.2231 31.4626 35.7358 33.2723 34.0937 34.5116C34.0565 34.5397 34.0182 34.5662 33.979 34.5912L24.68 40.5084C24.624 40.544 24.566 40.5764 24.5063 40.6055C21.0225 42.3009 16.4797 42.3738 12.7417 39.0201C9.57039 36.1748 9.132 32.7096 9.47196 30.0819C9.63977 28.7848 9.99539 27.672 10.3051 26.8871C10.4609 26.492 10.608 26.1728 10.7195 25.9465C10.772 25.8397 10.8169 25.7531 10.8513 25.6885C10.6062 25.1854 10.3975 24.6454 10.2326 24.0669C9.72593 22.2893 9.46573 20.1509 10.3321 17.9232C11.1956 15.7029 13.0656 13.6802 16.2285 11.882L23.9116 7.11554C24.0507 7.02924 24.2012 6.96288 24.3588 6.91841C26.2073 6.39663 27.9473 6.08111 29.734 6.34671ZM13.2751 28.9949C13.138 29.4504 13.0155 29.971 12.943 30.5309C12.705 32.3707 13.001 34.5505 15.079 36.4149C17.5443 38.6267 20.4636 38.6467 22.889 37.4995L32.0382 31.6777C33.1924 30.7918 34.1177 29.593 34.5073 28.2318C34.8882 26.9009 34.8053 25.2575 33.6626 23.3272C33.3387 22.78 32.937 22.2536 32.3121 21.7468C31.8007 21.4257 31.2701 21.1052 30.79 20.8389C30.4923 20.6739 30.2449 20.5472 30.0513 20.4564C29.9153 20.3994 29.7742 20.3427 29.6278 20.2862C28.3907 19.9026 27.3432 19.8449 26.6214 19.8779C26.2555 19.8946 25.9746 19.9346 25.7974 19.9668C25.7929 19.9676 25.7884 19.9684 25.7839 19.9693L20.9953 22.9726C20.1765 23.4861 19.0964 23.2386 18.5829 22.4198C18.0694 21.6011 18.3168 20.521 19.1356 20.0075L24.1752 16.8468L24.1875 16.8392L27.4543 14.8277C28.2773 14.321 29.3553 14.5774 29.862 15.4004C30.1249 15.8274 30.1824 16.323 30.0619 16.7719C30.2805 16.8284 30.5034 16.8922 30.7303 16.9638C30.9629 17.0373 31.2129 17.1386 31.4672 17.2551C32.6268 17.7469 33.5628 18.2885 34.335 18.8847C34.4554 18.9609 34.5736 19.0364 34.6888 19.1104C34.8367 18.658 34.9693 18.14 35.0486 17.5812C35.3044 15.7787 35.0227 13.5668 32.7868 11.5817C31.3293 10.4328 30.2339 9.95948 29.2194 9.80867C28.2167 9.65962 27.1079 9.79594 25.5436 10.2219L18.0446 14.8742C18.0248 14.8864 18.0048 14.8983 17.9846 14.9097C15.2525 16.4576 14.0779 17.9476 13.5941 19.1918C13.1103 20.4359 13.2037 21.7223 13.5985 23.1075C14.0477 24.6831 15.0122 25.845 16.2148 26.6538C16.8058 26.9856 17.3799 27.2886 17.8366 27.493C17.8674 27.5067 17.8978 27.5214 17.9277 27.5369C18.5059 27.8368 19.5985 27.9446 20.8267 27.883C21.3889 27.8548 21.8982 27.7964 22.2674 27.7447C22.3689 27.7305 22.4589 27.7169 22.5357 27.7048L27.0376 24.9368C27.861 24.4306 28.9388 24.6877 29.445 25.511C29.9512 26.3343 29.6941 27.4121 28.8708 27.9183L24.0948 30.8548L20.5315 33.1304C19.717 33.6505 18.6349 33.4119 18.1147 32.5973C17.8368 32.1621 17.7755 31.6505 17.9029 31.189C17.3826 31.0797 16.8707 30.9189 16.4013 30.687C15.7285 30.4153 15.0565 30.0737 14.4128 29.6558C14.0142 29.4309 13.6259 29.2038 13.2751 28.9949Z" fill="black"/>
</svg>
