<svg width="48" height="48" viewBox="0 0 48 48" fill="none" xmlns="http://www.w3.org/2000/svg">
<path fill-rule="evenodd" clip-rule="evenodd" d="M6.25 9C6.25 8.0335 7.0335 7.25 8 7.25H24H40C40.9665 7.25 41.75 8.0335 41.75 9V19V29V39C41.75 39.9665 40.9665 40.75 40 40.75H24H8C7.0335 40.75 6.25 39.9665 6.25 39V29V19V9ZM9.75 10.75V17.25H22.25V10.75H9.75ZM25.75 10.75V17.25H38.25V10.75H25.75ZM38.25 20.75H25.75V27.25H38.25V20.75ZM38.25 30.75H25.75V37.25H38.25V30.75ZM22.25 37.25V30.75H9.75V37.25H22.25ZM9.75 27.25H22.25V20.75H9.75V27.25Z" fill="black"/>
</svg>
