<svg width="48" height="48" viewBox="0 0 48 48" fill="none" xmlns="http://www.w3.org/2000/svg">
<path fill-rule="evenodd" clip-rule="evenodd" d="M23.6467 6.31414C24.5777 6.57363 25.1221 7.53873 24.8626 8.46974L22.3041 17.649L29.2821 17.6613L32.1059 7.53032C32.3654 6.59931 33.3305 6.05494 34.2615 6.31444C35.1925 6.57394 35.7369 7.53903 35.4774 8.47004L32.9137 17.6677L38.1146 17.6768C39.0811 17.6785 39.8632 18.4634 39.8615 19.4299C39.8598 20.3964 39.0749 21.1785 38.1084 21.1768L31.9387 21.1659L30.139 27.6228L38.3249 27.6372C39.2914 27.6389 40.0735 28.4238 40.0718 29.3903C40.0701 30.3568 39.2852 31.1389 38.3187 31.1372L29.1639 31.1211L26.5581 40.4701C26.2986 41.4011 25.3335 41.9454 24.4025 41.6859C23.4715 41.4264 22.9271 40.4613 23.1866 39.5303L25.5323 31.1147L18.5543 31.1024L15.9433 40.4697C15.6838 41.4007 14.7187 41.9451 13.7877 41.6856C12.8567 41.4261 12.3124 40.461 12.5719 39.53L14.9226 31.096L9.88534 31.0871C8.91884 31.0854 8.13672 30.3005 8.13843 29.334C8.14013 28.3675 8.92501 27.5854 9.89151 27.5871L15.8977 27.5977L17.6974 21.1408L9.67508 21.1267C8.70858 21.125 7.92646 20.3401 7.92816 19.3736C7.92987 18.4071 8.71475 17.625 9.68125 17.6267L18.6725 17.6426L21.4911 7.53002C21.7506 6.59901 22.7157 6.05464 23.6467 6.31414ZM21.329 21.1472L19.5293 27.6041L26.5074 27.6164L28.307 21.1595L21.329 21.1472Z" fill="black"/>
</svg>
