<svg width="48" height="48" viewBox="0 0 48 48" fill="none" xmlns="http://www.w3.org/2000/svg">
<path fill-rule="evenodd" clip-rule="evenodd" d="M6.76256 7.76257C7.09074 7.43438 7.53587 7.25 8 7.25H16H32H40C40.9665 7.25 41.75 8.0335 41.75 9V19V29V39C41.75 39.9665 40.9665 40.75 40 40.75H32H16H8C7.53586 40.75 7.09074 40.5656 6.76255 40.2374C6.43436 39.9092 6.24999 39.4641 6.25 39L6.25024 29V29L6.25012 19L6.25 9.00002C6.24999 8.53589 6.43437 8.09076 6.76256 7.76257ZM9.75019 30.75L9.75004 37.25H14.25V30.75H9.75019ZM14.25 27.25V20.75H9.75014L9.75022 27.25H14.25ZM9.7501 17.25H14.25V10.75H9.75002L9.7501 17.25ZM17.75 10.75V19V29V37.25H30.25V29V19V10.75H17.75ZM33.75 10.75V17.25H38.25V10.75H33.75ZM38.25 20.75H33.75V27.25H38.25V20.75ZM38.25 30.75H33.75V37.25H38.25V30.75Z" fill="black"/>
</svg>
