<svg width="48" height="48" viewBox="0 0 48 48" fill="none" xmlns="http://www.w3.org/2000/svg">
<path fill-rule="evenodd" clip-rule="evenodd" d="M7.21926 6.43384C8.08424 6.00264 9.135 6.35429 9.5662 7.21926L23.957 36.0869L38.4357 7.21553C38.869 6.35158 39.9206 6.00244 40.7845 6.4357C41.6485 6.86897 41.9976 7.92056 41.5643 8.78451L25.5166 40.7845C25.2195 41.377 24.6131 41.7508 23.9502 41.75C23.2874 41.7492 22.6819 41.374 22.3861 40.7808L6.43384 8.78077C6.00264 7.9158 6.35429 6.86504 7.21926 6.43384ZM15.1954 6.43384C16.0604 6.00264 17.1112 6.35429 17.5424 7.21926L23.957 20.0869L30.4119 7.21553C30.8451 6.35158 31.8967 6.00244 32.7607 6.4357C33.6246 6.86897 33.9737 7.92056 33.5405 8.78451L25.5166 24.7845L23.9477 27.9131L22.3861 24.7808L14.41 8.78077C13.9788 7.9158 14.3304 6.86504 15.1954 6.43384Z" fill="black"/>
</svg>
