<svg width="48" height="48" viewBox="0 0 48 48" fill="none" xmlns="http://www.w3.org/2000/svg">
<path fill-rule="evenodd" clip-rule="evenodd" d="M7.21926 6.43381C8.08424 6.00261 9.135 6.35425 9.5662 7.21923L23.957 36.0869L38.4357 7.2155C38.869 6.35155 39.9206 6.00241 40.7845 6.43567C41.6485 6.86894 41.9976 7.92053 41.5643 8.78448L25.5166 40.7845C25.2195 41.377 24.6131 41.7508 23.9502 41.75C23.2874 41.7492 22.6819 41.374 22.3861 40.7807L6.43384 8.78074C6.00264 7.91577 6.35429 6.86501 7.21926 6.43381ZM15.1954 6.43381C16.0604 6.00261 17.1112 6.35425 17.5424 7.21923L23.957 20.0869L30.4119 7.2155C30.8451 6.35155 31.8967 6.00241 32.7607 6.43567C33.6246 6.86894 33.9737 7.92053 33.5405 8.78448L25.5166 24.7845L23.9477 27.9131L22.3861 24.7807L14.41 8.78074C13.9788 7.91577 14.3304 6.86501 15.1954 6.43381Z" fill="black"/>
</svg>
